M48
;GenerationSoftware,Autodesk,EAGLE,9.6.1*%
;CreationDate,2021-04-02T07:34:21Z*%
FMAT,2
ICI,OFF
METRIC,TZ,000.000
T3C0.350
T2C0.650
T1C0.800
%
G90
M71
T1
X6624Y1751
T2
X13970Y13176
X15240Y13176
X16510Y13176
X17780Y13176
X19050Y13176
X8255Y794
X9525Y794
X10795Y794
X19050Y794
X17780Y794
X16510Y794
X15240Y794
X13970Y794
X12700Y794
X8255Y13176
X9525Y13176
X10795Y13176
X12065Y13176
X6985Y13176
X5715Y13176
X4445Y13176
T3
X5107Y11443
X16192Y2302
X13732Y8652
X16113Y10239
X6747Y6509
X7858Y5953
X6711Y8578
X5422Y5541
X5318Y2857
X13732Y2619
X15332Y2302
X16236Y7148
X16262Y8045
X14194Y9392
X19078Y4308
X14803Y8626
X12740Y11311
X6032Y11430
X14381Y11087
X4128Y8226
X12400Y5261
X16192Y11192
X9247Y9882
X12424Y4086
X7858Y3810
X9327Y7818
X11232Y9723
X6191Y7223
M30