G04 EAGLE Gerber RS-274X export*
G75*
%MOMM*%
%FSLAX34Y34*%
%LPD*%
%INTop Copper*%
%IPPOS*%
%AMOC8*
5,1,8,0,0,1.08239X$1,22.5*%
G01*
%ADD10R,1.100000X1.000000*%
%ADD11C,1.054000*%
%ADD12R,1.200000X0.550000*%
%ADD13R,1.000000X1.100000*%
%ADD14R,1.600000X1.400000*%
%ADD15C,0.254000*%
%ADD16C,0.450000*%
%ADD17C,0.150000*%
%ADD18R,3.200000X3.200000*%
%ADD19C,0.355600*%
%ADD20R,1.016000X1.016000*%
%ADD21C,0.304800*%
%ADD22C,0.762000*%
%ADD23C,0.705600*%
%ADD24C,0.508000*%
%ADD25C,0.152400*%
%ADD26C,0.457200*%

G36*
X155175Y104780D02*
X155175Y104780D01*
X155184Y104779D01*
X155377Y104804D01*
X155566Y104826D01*
X155574Y104829D01*
X155583Y104830D01*
X155766Y104891D01*
X155949Y104951D01*
X155957Y104955D01*
X155965Y104958D01*
X156130Y105053D01*
X156299Y105149D01*
X156306Y105155D01*
X156314Y105159D01*
X156567Y105374D01*
X158109Y106916D01*
X160070Y107728D01*
X168228Y107728D01*
X168246Y107730D01*
X168264Y107729D01*
X168446Y107750D01*
X168629Y107768D01*
X168646Y107774D01*
X168663Y107776D01*
X168838Y107833D01*
X169014Y107887D01*
X169029Y107895D01*
X169046Y107901D01*
X169206Y107991D01*
X169368Y108078D01*
X169381Y108090D01*
X169397Y108098D01*
X169536Y108219D01*
X169677Y108336D01*
X169688Y108350D01*
X169702Y108362D01*
X169727Y108394D01*
X177332Y108394D01*
X177350Y108396D01*
X177367Y108395D01*
X177550Y108416D01*
X177732Y108434D01*
X177749Y108440D01*
X177767Y108442D01*
X177942Y108499D01*
X178117Y108552D01*
X178133Y108561D01*
X178150Y108567D01*
X178310Y108657D01*
X178471Y108744D01*
X178485Y108756D01*
X178501Y108764D01*
X178640Y108885D01*
X178781Y109002D01*
X178792Y109016D01*
X178805Y109028D01*
X178918Y109173D01*
X179033Y109316D01*
X179041Y109332D01*
X179052Y109346D01*
X179134Y109511D01*
X179148Y109538D01*
X179246Y109593D01*
X179408Y109680D01*
X179421Y109692D01*
X179437Y109701D01*
X179576Y109821D01*
X179717Y109938D01*
X179728Y109952D01*
X179742Y109964D01*
X179854Y110109D01*
X179969Y110252D01*
X179977Y110268D01*
X179988Y110282D01*
X180070Y110447D01*
X180155Y110609D01*
X180160Y110626D01*
X180168Y110642D01*
X180215Y110821D01*
X180266Y110996D01*
X180268Y111014D01*
X180272Y111031D01*
X180299Y111362D01*
X180299Y118934D01*
X181185Y118934D01*
X181194Y118935D01*
X181203Y118935D01*
X181396Y118956D01*
X181585Y118974D01*
X181594Y118977D01*
X181603Y118978D01*
X181787Y119036D01*
X181970Y119093D01*
X181978Y119097D01*
X181987Y119099D01*
X182155Y119193D01*
X182324Y119284D01*
X182331Y119290D01*
X182339Y119294D01*
X182486Y119419D01*
X182634Y119542D01*
X182639Y119549D01*
X182646Y119555D01*
X182766Y119706D01*
X182886Y119856D01*
X182890Y119864D01*
X182896Y119871D01*
X182983Y120043D01*
X183071Y120213D01*
X183074Y120222D01*
X183078Y120230D01*
X183130Y120416D01*
X183183Y120600D01*
X183184Y120609D01*
X183186Y120618D01*
X183200Y120810D01*
X183216Y121001D01*
X183215Y121010D01*
X183215Y121019D01*
X183191Y121211D01*
X183169Y121401D01*
X183166Y121410D01*
X183165Y121418D01*
X183104Y121601D01*
X183044Y121784D01*
X183039Y121792D01*
X183037Y121800D01*
X182941Y121967D01*
X182846Y122135D01*
X182840Y122141D01*
X182836Y122149D01*
X182621Y122402D01*
X180460Y124563D01*
X180440Y124580D01*
X180422Y124600D01*
X180284Y124707D01*
X180149Y124818D01*
X180125Y124830D01*
X180104Y124847D01*
X179947Y124925D01*
X179793Y125007D01*
X179768Y125014D01*
X179743Y125026D01*
X179574Y125072D01*
X179407Y125121D01*
X179381Y125124D01*
X179355Y125131D01*
X179024Y125158D01*
X149680Y125158D01*
X149671Y125157D01*
X149662Y125158D01*
X149470Y125137D01*
X149279Y125118D01*
X149271Y125115D01*
X149262Y125114D01*
X149080Y125057D01*
X148894Y125000D01*
X148887Y124995D01*
X148878Y124993D01*
X148710Y124900D01*
X148540Y124808D01*
X148534Y124802D01*
X148526Y124798D01*
X148379Y124673D01*
X148231Y124550D01*
X148226Y124543D01*
X148219Y124537D01*
X148100Y124387D01*
X147979Y124236D01*
X147975Y124229D01*
X147969Y124222D01*
X147881Y124049D01*
X147793Y123879D01*
X147791Y123871D01*
X147787Y123863D01*
X147735Y123676D01*
X147682Y123492D01*
X147681Y123483D01*
X147679Y123475D01*
X147665Y123282D01*
X147649Y123091D01*
X147650Y123082D01*
X147649Y123073D01*
X147674Y122881D01*
X147696Y122691D01*
X147699Y122683D01*
X147700Y122674D01*
X147761Y122491D01*
X147821Y122308D01*
X147825Y122300D01*
X147828Y122292D01*
X147924Y122125D01*
X148019Y121958D01*
X148025Y121951D01*
X148029Y121943D01*
X148244Y121690D01*
X153099Y116835D01*
X153099Y106810D01*
X153100Y106801D01*
X153099Y106792D01*
X153120Y106600D01*
X153139Y106409D01*
X153142Y106401D01*
X153143Y106392D01*
X153200Y106210D01*
X153257Y106025D01*
X153262Y106017D01*
X153264Y106008D01*
X153357Y105840D01*
X153449Y105670D01*
X153455Y105664D01*
X153459Y105656D01*
X153584Y105508D01*
X153707Y105361D01*
X153714Y105356D01*
X153720Y105349D01*
X153871Y105229D01*
X154021Y105109D01*
X154028Y105105D01*
X154035Y105099D01*
X154208Y105012D01*
X154378Y104923D01*
X154386Y104921D01*
X154394Y104917D01*
X154580Y104865D01*
X154765Y104812D01*
X154774Y104811D01*
X154782Y104809D01*
X154975Y104795D01*
X155166Y104779D01*
X155175Y104780D01*
G37*
G36*
X104358Y39578D02*
X104358Y39578D01*
X104367Y39578D01*
X104556Y39600D01*
X104749Y39621D01*
X104758Y39624D01*
X104767Y39625D01*
X104949Y39684D01*
X105133Y39742D01*
X105141Y39747D01*
X105149Y39749D01*
X105316Y39844D01*
X105485Y39937D01*
X105492Y39943D01*
X105500Y39947D01*
X105645Y40072D01*
X105792Y40198D01*
X105798Y40205D01*
X105805Y40210D01*
X105921Y40361D01*
X106042Y40514D01*
X106046Y40522D01*
X106051Y40529D01*
X106137Y40700D01*
X106224Y40873D01*
X106227Y40881D01*
X106231Y40889D01*
X106281Y41075D01*
X106332Y41260D01*
X106333Y41269D01*
X106335Y41278D01*
X106362Y41609D01*
X106362Y44894D01*
X113435Y44894D01*
X113453Y44896D01*
X113470Y44895D01*
X113653Y44916D01*
X113836Y44934D01*
X113853Y44940D01*
X113870Y44942D01*
X114045Y44999D01*
X114220Y45052D01*
X114236Y45061D01*
X114253Y45067D01*
X114413Y45157D01*
X114574Y45244D01*
X114588Y45256D01*
X114604Y45264D01*
X114743Y45385D01*
X114884Y45502D01*
X114895Y45516D01*
X114908Y45528D01*
X115021Y45673D01*
X115136Y45816D01*
X115144Y45832D01*
X115155Y45846D01*
X115237Y46011D01*
X115322Y46173D01*
X115326Y46190D01*
X115334Y46206D01*
X115382Y46384D01*
X115433Y46560D01*
X115434Y46578D01*
X115439Y46595D01*
X115466Y46926D01*
X115466Y47862D01*
X115464Y47880D01*
X115466Y47897D01*
X115444Y48080D01*
X115426Y48262D01*
X115421Y48279D01*
X115419Y48297D01*
X115362Y48472D01*
X115308Y48647D01*
X115300Y48663D01*
X115294Y48680D01*
X115204Y48840D01*
X115116Y49001D01*
X115105Y49015D01*
X115096Y49031D01*
X114976Y49170D01*
X114859Y49311D01*
X114845Y49322D01*
X114833Y49335D01*
X114688Y49448D01*
X114545Y49563D01*
X114529Y49571D01*
X114515Y49582D01*
X114350Y49664D01*
X114188Y49748D01*
X114171Y49753D01*
X114154Y49761D01*
X113976Y49809D01*
X113801Y49860D01*
X113783Y49861D01*
X113766Y49866D01*
X113435Y49893D01*
X106362Y49893D01*
X106362Y53228D01*
X106536Y53874D01*
X106870Y54454D01*
X107343Y54927D01*
X107762Y55168D01*
X107880Y55254D01*
X108003Y55332D01*
X108043Y55371D01*
X108089Y55403D01*
X108188Y55510D01*
X108293Y55612D01*
X108325Y55657D01*
X108363Y55698D01*
X108439Y55823D01*
X108523Y55943D01*
X108544Y55994D01*
X108574Y56041D01*
X108624Y56179D01*
X108682Y56313D01*
X108693Y56367D01*
X108713Y56419D01*
X108735Y56564D01*
X108765Y56707D01*
X108766Y56762D01*
X108774Y56817D01*
X108768Y56963D01*
X108769Y57109D01*
X108759Y57164D01*
X108756Y57219D01*
X108721Y57361D01*
X108694Y57505D01*
X108673Y57556D01*
X108659Y57610D01*
X108597Y57742D01*
X108541Y57877D01*
X108511Y57924D01*
X108487Y57974D01*
X108400Y58091D01*
X108319Y58213D01*
X108280Y58252D01*
X108246Y58297D01*
X108138Y58394D01*
X108034Y58498D01*
X107982Y58534D01*
X107947Y58566D01*
X107875Y58608D01*
X107762Y58687D01*
X107371Y58912D01*
X107221Y58980D01*
X107074Y59053D01*
X107038Y59063D01*
X107004Y59078D01*
X106844Y59115D01*
X106686Y59158D01*
X106643Y59161D01*
X106611Y59168D01*
X106524Y59171D01*
X106355Y59185D01*
X104226Y59185D01*
X104064Y59168D01*
X103900Y59158D01*
X103863Y59148D01*
X103826Y59145D01*
X103669Y59097D01*
X103511Y59054D01*
X103472Y59036D01*
X103441Y59027D01*
X103364Y58985D01*
X103211Y58912D01*
X102322Y58399D01*
X102322Y59620D01*
X102319Y59646D01*
X102321Y59673D01*
X102312Y59748D01*
X102312Y59821D01*
X102292Y59919D01*
X102282Y60020D01*
X102274Y60046D01*
X102271Y60072D01*
X102247Y60144D01*
X102232Y60216D01*
X102194Y60308D01*
X102164Y60405D01*
X102151Y60429D01*
X102143Y60454D01*
X102105Y60519D01*
X102077Y60587D01*
X102020Y60670D01*
X101972Y60759D01*
X101955Y60780D01*
X101942Y60803D01*
X101886Y60869D01*
X101851Y60921D01*
X101798Y60972D01*
X101727Y61056D01*
X101720Y61062D01*
X101714Y61068D01*
X101636Y61132D01*
X101563Y61203D01*
X101486Y61253D01*
X101415Y61311D01*
X101407Y61315D01*
X101401Y61321D01*
X101312Y61367D01*
X101226Y61423D01*
X101141Y61457D01*
X101060Y61500D01*
X101051Y61502D01*
X101043Y61506D01*
X100947Y61534D01*
X100852Y61572D01*
X100762Y61588D01*
X100674Y61615D01*
X100664Y61615D01*
X100656Y61618D01*
X100557Y61626D01*
X100456Y61644D01*
X100364Y61643D01*
X100273Y61651D01*
X100263Y61650D01*
X100255Y61651D01*
X100156Y61639D01*
X100054Y61637D01*
X99964Y61618D01*
X99873Y61608D01*
X99863Y61605D01*
X99855Y61604D01*
X99760Y61573D01*
X99660Y61551D01*
X99576Y61514D01*
X99489Y61486D01*
X99480Y61481D01*
X99472Y61479D01*
X99385Y61430D01*
X99292Y61389D01*
X99217Y61336D01*
X99136Y61291D01*
X99129Y61285D01*
X99122Y61281D01*
X99046Y61215D01*
X98963Y61157D01*
X98886Y61079D01*
X98829Y61031D01*
X98824Y61024D01*
X98817Y61018D01*
X98783Y60974D01*
X98730Y60920D01*
X98659Y60815D01*
X98580Y60715D01*
X98576Y60707D01*
X98570Y60700D01*
X98541Y60641D01*
X98504Y60587D01*
X98455Y60468D01*
X98397Y60356D01*
X98395Y60348D01*
X98391Y60339D01*
X98374Y60276D01*
X98349Y60215D01*
X98323Y60089D01*
X98289Y59968D01*
X98289Y59960D01*
X98286Y59950D01*
X98280Y59875D01*
X98269Y59821D01*
X98269Y59741D01*
X98259Y59620D01*
X98259Y58399D01*
X97371Y58912D01*
X97221Y58980D01*
X97074Y59053D01*
X97038Y59063D01*
X97004Y59078D01*
X96844Y59115D01*
X96686Y59158D01*
X96643Y59161D01*
X96611Y59168D01*
X96524Y59171D01*
X96355Y59185D01*
X92135Y59185D01*
X92108Y59182D01*
X92081Y59184D01*
X91908Y59162D01*
X91734Y59145D01*
X91709Y59137D01*
X91682Y59134D01*
X91516Y59078D01*
X91349Y59027D01*
X91326Y59014D01*
X91300Y59005D01*
X91149Y58918D01*
X90995Y58835D01*
X90975Y58818D01*
X90951Y58804D01*
X90698Y58590D01*
X88467Y56358D01*
X88461Y56351D01*
X88455Y56346D01*
X88334Y56196D01*
X88212Y56047D01*
X88208Y56039D01*
X88202Y56032D01*
X88114Y55862D01*
X88023Y55691D01*
X88021Y55682D01*
X88017Y55675D01*
X87964Y55490D01*
X87909Y55305D01*
X87908Y55296D01*
X87905Y55288D01*
X87890Y55097D01*
X87872Y54904D01*
X87873Y54895D01*
X87872Y54886D01*
X87895Y54697D01*
X87916Y54504D01*
X87918Y54495D01*
X87919Y54487D01*
X87979Y54305D01*
X88037Y54120D01*
X88041Y54112D01*
X88044Y54104D01*
X88139Y53935D01*
X88232Y53768D01*
X88238Y53761D01*
X88242Y53753D01*
X88368Y53607D01*
X88492Y53461D01*
X88499Y53455D01*
X88505Y53448D01*
X88657Y53331D01*
X88808Y53211D01*
X88816Y53207D01*
X88823Y53202D01*
X88995Y53116D01*
X89167Y53029D01*
X89176Y53026D01*
X89184Y53022D01*
X89370Y52972D01*
X89551Y52922D01*
X89551Y49631D01*
X83042Y49631D01*
X83042Y50685D01*
X83215Y51331D01*
X83562Y51932D01*
X83644Y52033D01*
X83770Y52187D01*
X83772Y52192D01*
X83775Y52195D01*
X83865Y52366D01*
X83959Y52543D01*
X83960Y52547D01*
X83962Y52551D01*
X84017Y52739D01*
X84074Y52929D01*
X84074Y52934D01*
X84075Y52938D01*
X84092Y53130D01*
X84110Y53330D01*
X84110Y53335D01*
X84110Y53339D01*
X84088Y53530D01*
X84067Y53730D01*
X84065Y53735D01*
X84065Y53739D01*
X84004Y53927D01*
X83945Y54114D01*
X83943Y54118D01*
X83942Y54122D01*
X83845Y54296D01*
X83750Y54466D01*
X83747Y54470D01*
X83745Y54474D01*
X83619Y54621D01*
X83490Y54773D01*
X83486Y54776D01*
X83483Y54780D01*
X83332Y54898D01*
X83174Y55023D01*
X83170Y55025D01*
X83166Y55028D01*
X82993Y55115D01*
X82815Y55205D01*
X82811Y55207D01*
X82807Y55209D01*
X82621Y55259D01*
X82427Y55314D01*
X82423Y55314D01*
X82418Y55315D01*
X82222Y55329D01*
X82026Y55343D01*
X82021Y55342D01*
X82017Y55343D01*
X81819Y55317D01*
X81626Y55293D01*
X81622Y55291D01*
X81617Y55291D01*
X81302Y55189D01*
X79586Y54479D01*
X77576Y54479D01*
X76977Y54727D01*
X76964Y54730D01*
X76953Y54737D01*
X76772Y54789D01*
X76592Y54843D01*
X76579Y54844D01*
X76566Y54848D01*
X76377Y54863D01*
X76191Y54881D01*
X76178Y54880D01*
X76164Y54881D01*
X75978Y54859D01*
X75791Y54840D01*
X75778Y54836D01*
X75765Y54834D01*
X75587Y54776D01*
X75406Y54720D01*
X75395Y54713D01*
X75382Y54709D01*
X75218Y54617D01*
X75053Y54526D01*
X75043Y54518D01*
X75031Y54511D01*
X74889Y54388D01*
X74745Y54267D01*
X74737Y54257D01*
X74727Y54248D01*
X74612Y54100D01*
X74494Y53952D01*
X74488Y53940D01*
X74480Y53930D01*
X74396Y53762D01*
X74310Y53594D01*
X74306Y53581D01*
X74300Y53569D01*
X74251Y53387D01*
X74200Y53207D01*
X74199Y53194D01*
X74196Y53181D01*
X74169Y52850D01*
X74169Y44781D01*
X74170Y44768D01*
X74169Y44755D01*
X74190Y44568D01*
X74209Y44381D01*
X74213Y44368D01*
X74214Y44355D01*
X74272Y44176D01*
X74327Y43996D01*
X74333Y43984D01*
X74337Y43971D01*
X74429Y43807D01*
X74519Y43642D01*
X74527Y43631D01*
X74534Y43620D01*
X74656Y43477D01*
X74776Y43332D01*
X74787Y43324D01*
X74795Y43314D01*
X74944Y43198D01*
X75090Y43080D01*
X75102Y43074D01*
X75113Y43066D01*
X75281Y42981D01*
X75447Y42895D01*
X75460Y42891D01*
X75472Y42885D01*
X75654Y42835D01*
X75834Y42783D01*
X75848Y42782D01*
X75861Y42779D01*
X76047Y42766D01*
X76236Y42750D01*
X76249Y42752D01*
X76262Y42751D01*
X76448Y42775D01*
X76635Y42797D01*
X76648Y42801D01*
X76661Y42803D01*
X76977Y42905D01*
X77576Y43153D01*
X79586Y43153D01*
X80233Y42885D01*
X80246Y42881D01*
X80258Y42875D01*
X80437Y42823D01*
X80618Y42768D01*
X80632Y42767D01*
X80645Y42763D01*
X80832Y42748D01*
X81019Y42730D01*
X81032Y42732D01*
X81046Y42731D01*
X81232Y42752D01*
X81420Y42772D01*
X81432Y42776D01*
X81446Y42777D01*
X81625Y42836D01*
X81804Y42892D01*
X81816Y42898D01*
X81828Y42902D01*
X81992Y42995D01*
X82157Y43085D01*
X82167Y43094D01*
X82179Y43100D01*
X82321Y43223D01*
X82465Y43344D01*
X82474Y43355D01*
X82484Y43363D01*
X82598Y43511D01*
X82716Y43659D01*
X82722Y43671D01*
X82731Y43681D01*
X82814Y43850D01*
X82900Y44017D01*
X82904Y44030D01*
X82910Y44042D01*
X82959Y44225D01*
X83010Y44405D01*
X83011Y44418D01*
X83014Y44431D01*
X83042Y44762D01*
X83042Y45569D01*
X91582Y45569D01*
X91583Y45569D01*
X100123Y45569D01*
X100123Y44515D01*
X100008Y44085D01*
X99996Y44017D01*
X99993Y44006D01*
X99992Y43995D01*
X99970Y43916D01*
X99961Y43801D01*
X99942Y43687D01*
X99945Y43601D01*
X99939Y43514D01*
X99953Y43400D01*
X99957Y43285D01*
X99977Y43201D01*
X99987Y43115D01*
X100024Y43005D01*
X100050Y42893D01*
X100087Y42815D01*
X100114Y42732D01*
X100171Y42632D01*
X100219Y42528D01*
X100271Y42458D01*
X100313Y42383D01*
X100389Y42296D01*
X100457Y42203D01*
X100521Y42144D01*
X100578Y42079D01*
X100669Y42009D01*
X100754Y41931D01*
X100828Y41887D01*
X100897Y41834D01*
X101026Y41767D01*
X101099Y41723D01*
X101141Y41709D01*
X101192Y41682D01*
X101521Y41546D01*
X102895Y40172D01*
X102902Y40167D01*
X102907Y40160D01*
X103057Y40039D01*
X103206Y39917D01*
X103214Y39913D01*
X103221Y39907D01*
X103392Y39819D01*
X103562Y39729D01*
X103571Y39726D01*
X103579Y39722D01*
X103763Y39669D01*
X103948Y39614D01*
X103957Y39613D01*
X103965Y39611D01*
X104156Y39595D01*
X104349Y39577D01*
X104358Y39578D01*
G37*
G36*
X146521Y102454D02*
X146521Y102454D01*
X146530Y102453D01*
X146719Y102475D01*
X146913Y102496D01*
X146921Y102499D01*
X146930Y102500D01*
X147112Y102559D01*
X147296Y102618D01*
X147304Y102622D01*
X147313Y102625D01*
X147481Y102720D01*
X147649Y102812D01*
X147655Y102818D01*
X147663Y102823D01*
X147809Y102949D01*
X147956Y103073D01*
X147961Y103080D01*
X147968Y103086D01*
X148085Y103237D01*
X148205Y103389D01*
X148209Y103397D01*
X148215Y103404D01*
X148300Y103576D01*
X148388Y103748D01*
X148390Y103756D01*
X148394Y103764D01*
X148444Y103950D01*
X148496Y104136D01*
X148496Y104145D01*
X148499Y104153D01*
X148526Y104484D01*
X148526Y114099D01*
X148523Y114125D01*
X148525Y114152D01*
X148503Y114326D01*
X148486Y114500D01*
X148478Y114525D01*
X148475Y114552D01*
X148419Y114717D01*
X148368Y114884D01*
X148355Y114908D01*
X148346Y114933D01*
X148259Y115085D01*
X148176Y115238D01*
X148159Y115259D01*
X148146Y115282D01*
X147931Y115535D01*
X142523Y120943D01*
X142502Y120960D01*
X142485Y120981D01*
X142347Y121088D01*
X142211Y121198D01*
X142188Y121211D01*
X142166Y121227D01*
X142010Y121305D01*
X141856Y121387D01*
X141830Y121395D01*
X141806Y121407D01*
X141637Y121452D01*
X141470Y121502D01*
X141443Y121504D01*
X141417Y121511D01*
X141086Y121538D01*
X130463Y121538D01*
X130458Y121538D01*
X130454Y121538D01*
X130259Y121518D01*
X130062Y121498D01*
X130058Y121497D01*
X130053Y121497D01*
X129867Y121438D01*
X129677Y121380D01*
X129673Y121378D01*
X129669Y121377D01*
X129497Y121283D01*
X129323Y121188D01*
X129320Y121186D01*
X129316Y121183D01*
X129164Y121055D01*
X129014Y120931D01*
X129011Y120927D01*
X129008Y120924D01*
X128884Y120769D01*
X128762Y120617D01*
X128760Y120613D01*
X128757Y120609D01*
X128666Y120432D01*
X128576Y120260D01*
X128575Y120255D01*
X128573Y120251D01*
X128519Y120059D01*
X128465Y119873D01*
X128464Y119868D01*
X128463Y119864D01*
X128448Y119669D01*
X128432Y119471D01*
X128432Y119467D01*
X128432Y119463D01*
X128456Y119268D01*
X128479Y119072D01*
X128480Y119067D01*
X128481Y119063D01*
X128543Y118876D01*
X128604Y118689D01*
X128606Y118685D01*
X128607Y118681D01*
X128705Y118509D01*
X128802Y118338D01*
X128805Y118335D01*
X128807Y118331D01*
X128938Y118181D01*
X129065Y118034D01*
X129068Y118031D01*
X129071Y118027D01*
X129229Y117906D01*
X129383Y117787D01*
X129387Y117785D01*
X129390Y117782D01*
X129686Y117630D01*
X130259Y117393D01*
X131680Y115972D01*
X132450Y114114D01*
X132450Y112104D01*
X131704Y110305D01*
X131700Y110292D01*
X131694Y110280D01*
X131642Y110100D01*
X131588Y109919D01*
X131586Y109906D01*
X131583Y109893D01*
X131567Y109705D01*
X131550Y109518D01*
X131551Y109505D01*
X131550Y109492D01*
X131572Y109306D01*
X131591Y109118D01*
X131595Y109105D01*
X131597Y109092D01*
X131655Y108913D01*
X131711Y108734D01*
X131717Y108722D01*
X131722Y108709D01*
X131814Y108546D01*
X131904Y108380D01*
X131913Y108370D01*
X131920Y108359D01*
X132042Y108217D01*
X132163Y108072D01*
X132174Y108064D01*
X132183Y108054D01*
X132331Y107939D01*
X132478Y107821D01*
X132490Y107815D01*
X132501Y107807D01*
X132669Y107723D01*
X132836Y107637D01*
X132849Y107634D01*
X132861Y107628D01*
X133044Y107579D01*
X133224Y107528D01*
X133237Y107527D01*
X133250Y107523D01*
X133581Y107496D01*
X140610Y107496D01*
X142544Y105562D01*
X145058Y103048D01*
X145065Y103042D01*
X145071Y103035D01*
X145220Y102915D01*
X145370Y102793D01*
X145378Y102788D01*
X145385Y102783D01*
X145555Y102694D01*
X145725Y102604D01*
X145734Y102601D01*
X145742Y102597D01*
X145926Y102544D01*
X146111Y102489D01*
X146120Y102488D01*
X146129Y102486D01*
X146320Y102470D01*
X146512Y102453D01*
X146521Y102454D01*
G37*
G36*
X123938Y45911D02*
X123938Y45911D01*
X123956Y45910D01*
X124138Y45931D01*
X124321Y45949D01*
X124338Y45954D01*
X124356Y45957D01*
X124530Y46013D01*
X124706Y46067D01*
X124721Y46076D01*
X124738Y46081D01*
X124899Y46172D01*
X125060Y46259D01*
X125073Y46271D01*
X125089Y46279D01*
X125228Y46400D01*
X125369Y46517D01*
X125380Y46531D01*
X125394Y46542D01*
X125506Y46687D01*
X125621Y46831D01*
X125630Y46846D01*
X125641Y46861D01*
X125723Y47025D01*
X125807Y47188D01*
X125812Y47205D01*
X125820Y47221D01*
X125868Y47399D01*
X125918Y47575D01*
X125920Y47593D01*
X125924Y47610D01*
X125952Y47941D01*
X125952Y49576D01*
X127589Y51213D01*
X128246Y51213D01*
X128273Y51216D01*
X128300Y51214D01*
X128474Y51236D01*
X128647Y51253D01*
X128672Y51261D01*
X128699Y51265D01*
X128865Y51320D01*
X129032Y51372D01*
X129055Y51384D01*
X129081Y51393D01*
X129232Y51480D01*
X129386Y51563D01*
X129406Y51580D01*
X129430Y51594D01*
X129683Y51808D01*
X130101Y52227D01*
X130163Y52233D01*
X130180Y52239D01*
X130198Y52241D01*
X130372Y52298D01*
X130548Y52352D01*
X130563Y52360D01*
X130580Y52366D01*
X130741Y52456D01*
X130902Y52543D01*
X130915Y52555D01*
X130931Y52563D01*
X131070Y52684D01*
X131211Y52801D01*
X131222Y52815D01*
X131236Y52827D01*
X131348Y52972D01*
X131463Y53115D01*
X131472Y53131D01*
X131483Y53145D01*
X131565Y53310D01*
X131649Y53472D01*
X131654Y53489D01*
X131662Y53505D01*
X131710Y53683D01*
X131760Y53859D01*
X131762Y53877D01*
X131766Y53894D01*
X131794Y54225D01*
X131794Y54613D01*
X131792Y54631D01*
X131793Y54648D01*
X131772Y54831D01*
X131754Y55013D01*
X131748Y55030D01*
X131746Y55048D01*
X131689Y55223D01*
X131635Y55398D01*
X131627Y55414D01*
X131621Y55431D01*
X131531Y55591D01*
X131444Y55752D01*
X131432Y55766D01*
X131424Y55782D01*
X131303Y55921D01*
X131186Y56062D01*
X131172Y56073D01*
X131160Y56086D01*
X131015Y56199D01*
X130872Y56314D01*
X130856Y56322D01*
X130842Y56333D01*
X130677Y56415D01*
X130515Y56499D01*
X130498Y56504D01*
X130482Y56512D01*
X130304Y56560D01*
X130128Y56611D01*
X130110Y56612D01*
X130093Y56617D01*
X129792Y56642D01*
X129663Y56677D01*
X129488Y56730D01*
X129470Y56731D01*
X129452Y56736D01*
X129269Y56750D01*
X129087Y56766D01*
X129069Y56764D01*
X129051Y56766D01*
X128869Y56743D01*
X128686Y56723D01*
X128669Y56717D01*
X128651Y56715D01*
X128477Y56657D01*
X128302Y56601D01*
X128287Y56593D01*
X128270Y56587D01*
X128111Y56495D01*
X127950Y56407D01*
X127936Y56395D01*
X127921Y56386D01*
X127668Y56171D01*
X127633Y56137D01*
X123312Y56137D01*
X123230Y56128D01*
X123148Y56130D01*
X123030Y56109D01*
X122911Y56097D01*
X122833Y56073D01*
X122752Y56058D01*
X122641Y56014D01*
X122526Y55979D01*
X122454Y55939D01*
X122378Y55909D01*
X122277Y55844D01*
X122172Y55787D01*
X122109Y55734D01*
X122040Y55689D01*
X121955Y55606D01*
X121863Y55529D01*
X121811Y55465D01*
X121753Y55408D01*
X121686Y55309D01*
X121611Y55215D01*
X121573Y55142D01*
X121527Y55074D01*
X121480Y54964D01*
X121425Y54858D01*
X121402Y54779D01*
X121370Y54703D01*
X121347Y54586D01*
X121314Y54471D01*
X121307Y54389D01*
X121291Y54309D01*
X121291Y54189D01*
X121281Y54070D01*
X121290Y53988D01*
X121290Y53906D01*
X121318Y53756D01*
X121328Y53670D01*
X121340Y53631D01*
X121350Y53580D01*
X121444Y53228D01*
X121444Y47941D01*
X121446Y47923D01*
X121444Y47905D01*
X121466Y47723D01*
X121484Y47540D01*
X121489Y47523D01*
X121491Y47505D01*
X121548Y47331D01*
X121602Y47155D01*
X121610Y47139D01*
X121616Y47122D01*
X121706Y46962D01*
X121794Y46801D01*
X121805Y46787D01*
X121814Y46772D01*
X121934Y46633D01*
X122051Y46492D01*
X122065Y46481D01*
X122077Y46467D01*
X122222Y46355D01*
X122365Y46239D01*
X122381Y46231D01*
X122395Y46220D01*
X122560Y46138D01*
X122722Y46054D01*
X122740Y46049D01*
X122756Y46041D01*
X122934Y45993D01*
X123109Y45943D01*
X123127Y45941D01*
X123144Y45936D01*
X123475Y45909D01*
X123920Y45909D01*
X123938Y45911D01*
G37*
%LPC*%
G36*
X170259Y113393D02*
X170259Y113393D01*
X170259Y116728D01*
X170432Y117374D01*
X170767Y117954D01*
X171240Y118427D01*
X171819Y118761D01*
X172465Y118934D01*
X175301Y118934D01*
X175301Y113393D01*
X170259Y113393D01*
G37*
%LPD*%
%LPC*%
G36*
X93614Y49631D02*
X93614Y49631D01*
X93614Y52891D01*
X97917Y52891D01*
X98563Y52718D01*
X99142Y52383D01*
X99615Y51910D01*
X99950Y51331D01*
X100123Y50685D01*
X100123Y49631D01*
X93614Y49631D01*
G37*
%LPD*%
D10*
X52784Y104147D03*
X52784Y87147D03*
D11*
X66244Y17506D03*
D12*
X65580Y47600D03*
X65580Y38100D03*
X65580Y28600D03*
X91582Y28600D03*
X91582Y47600D03*
D13*
X113903Y47394D03*
X113903Y30394D03*
D14*
X48419Y41563D03*
X48419Y69563D03*
D10*
X177800Y49378D03*
X177800Y32378D03*
X177800Y79938D03*
X177800Y62938D03*
D13*
X177800Y110894D03*
X177800Y93894D03*
D15*
X149066Y60419D02*
X138906Y60419D01*
X128746Y60419D01*
X138906Y36419D02*
X149066Y36419D01*
X138906Y36419D02*
X128746Y36419D01*
X138906Y48419D02*
X149066Y48419D01*
X138906Y48419D02*
X128746Y48419D01*
D16*
X131631Y60419D02*
X146181Y60419D01*
X146181Y48419D02*
X131631Y48419D01*
X131631Y36419D02*
X146181Y36419D01*
D17*
X86041Y61459D02*
X86041Y66959D01*
X86041Y61459D02*
X84541Y61459D01*
X84541Y66959D01*
X86041Y66959D01*
X86041Y62884D02*
X84541Y62884D01*
X84541Y64309D02*
X86041Y64309D01*
X86041Y65734D02*
X84541Y65734D01*
X91041Y66959D02*
X91041Y61459D01*
X89541Y61459D01*
X89541Y66959D01*
X91041Y66959D01*
X91041Y62884D02*
X89541Y62884D01*
X89541Y64309D02*
X91041Y64309D01*
X91041Y65734D02*
X89541Y65734D01*
X96041Y66959D02*
X96041Y61459D01*
X94541Y61459D01*
X94541Y66959D01*
X96041Y66959D01*
X96041Y62884D02*
X94541Y62884D01*
X94541Y64309D02*
X96041Y64309D01*
X96041Y65734D02*
X94541Y65734D01*
X101041Y66959D02*
X101041Y61459D01*
X99541Y61459D01*
X99541Y66959D01*
X101041Y66959D01*
X101041Y62884D02*
X99541Y62884D01*
X99541Y64309D02*
X101041Y64309D01*
X101041Y65734D02*
X99541Y65734D01*
X106041Y66959D02*
X106041Y61459D01*
X104541Y61459D01*
X104541Y66959D01*
X106041Y66959D01*
X106041Y62884D02*
X104541Y62884D01*
X104541Y64309D02*
X106041Y64309D01*
X106041Y65734D02*
X104541Y65734D01*
X111041Y66959D02*
X111041Y61459D01*
X109541Y61459D01*
X109541Y66959D01*
X111041Y66959D01*
X111041Y62884D02*
X109541Y62884D01*
X109541Y64309D02*
X111041Y64309D01*
X111041Y65734D02*
X109541Y65734D01*
X116041Y66959D02*
X116041Y61459D01*
X114541Y61459D01*
X114541Y66959D01*
X116041Y66959D01*
X116041Y62884D02*
X114541Y62884D01*
X114541Y64309D02*
X116041Y64309D01*
X116041Y65734D02*
X114541Y65734D01*
X121041Y66959D02*
X121041Y61459D01*
X119541Y61459D01*
X119541Y66959D01*
X121041Y66959D01*
X121041Y62884D02*
X119541Y62884D01*
X119541Y64309D02*
X121041Y64309D01*
X121041Y65734D02*
X119541Y65734D01*
X129041Y69459D02*
X129041Y70959D01*
X129041Y69459D02*
X123541Y69459D01*
X123541Y70959D01*
X129041Y70959D01*
X129041Y70884D02*
X123541Y70884D01*
X129041Y74459D02*
X129041Y75959D01*
X129041Y74459D02*
X123541Y74459D01*
X123541Y75959D01*
X129041Y75959D01*
X129041Y75884D02*
X123541Y75884D01*
X129041Y79459D02*
X129041Y80959D01*
X129041Y79459D02*
X123541Y79459D01*
X123541Y80959D01*
X129041Y80959D01*
X129041Y80884D02*
X123541Y80884D01*
X129041Y84459D02*
X129041Y85959D01*
X129041Y84459D02*
X123541Y84459D01*
X123541Y85959D01*
X129041Y85959D01*
X129041Y85884D02*
X123541Y85884D01*
X129041Y89459D02*
X129041Y90959D01*
X129041Y89459D02*
X123541Y89459D01*
X123541Y90959D01*
X129041Y90959D01*
X129041Y90884D02*
X123541Y90884D01*
X129041Y94459D02*
X129041Y95959D01*
X129041Y94459D02*
X123541Y94459D01*
X123541Y95959D01*
X129041Y95959D01*
X129041Y95884D02*
X123541Y95884D01*
X129041Y99459D02*
X129041Y100959D01*
X129041Y99459D02*
X123541Y99459D01*
X123541Y100959D01*
X129041Y100959D01*
X129041Y100884D02*
X123541Y100884D01*
X129041Y104459D02*
X129041Y105959D01*
X129041Y104459D02*
X123541Y104459D01*
X123541Y105959D01*
X129041Y105959D01*
X129041Y105884D02*
X123541Y105884D01*
X121041Y108459D02*
X121041Y113959D01*
X121041Y108459D02*
X119541Y108459D01*
X119541Y113959D01*
X121041Y113959D01*
X121041Y109884D02*
X119541Y109884D01*
X119541Y111309D02*
X121041Y111309D01*
X121041Y112734D02*
X119541Y112734D01*
X116041Y113959D02*
X116041Y108459D01*
X114541Y108459D01*
X114541Y113959D01*
X116041Y113959D01*
X116041Y109884D02*
X114541Y109884D01*
X114541Y111309D02*
X116041Y111309D01*
X116041Y112734D02*
X114541Y112734D01*
X111041Y113959D02*
X111041Y108459D01*
X109541Y108459D01*
X109541Y113959D01*
X111041Y113959D01*
X111041Y109884D02*
X109541Y109884D01*
X109541Y111309D02*
X111041Y111309D01*
X111041Y112734D02*
X109541Y112734D01*
X106041Y113959D02*
X106041Y108459D01*
X104541Y108459D01*
X104541Y113959D01*
X106041Y113959D01*
X106041Y109884D02*
X104541Y109884D01*
X104541Y111309D02*
X106041Y111309D01*
X106041Y112734D02*
X104541Y112734D01*
X101041Y113959D02*
X101041Y108459D01*
X99541Y108459D01*
X99541Y113959D01*
X101041Y113959D01*
X101041Y109884D02*
X99541Y109884D01*
X99541Y111309D02*
X101041Y111309D01*
X101041Y112734D02*
X99541Y112734D01*
X96041Y113959D02*
X96041Y108459D01*
X94541Y108459D01*
X94541Y113959D01*
X96041Y113959D01*
X96041Y109884D02*
X94541Y109884D01*
X94541Y111309D02*
X96041Y111309D01*
X96041Y112734D02*
X94541Y112734D01*
X91041Y113959D02*
X91041Y108459D01*
X89541Y108459D01*
X89541Y113959D01*
X91041Y113959D01*
X91041Y109884D02*
X89541Y109884D01*
X89541Y111309D02*
X91041Y111309D01*
X91041Y112734D02*
X89541Y112734D01*
X86041Y113959D02*
X86041Y108459D01*
X84541Y108459D01*
X84541Y113959D01*
X86041Y113959D01*
X86041Y109884D02*
X84541Y109884D01*
X84541Y111309D02*
X86041Y111309D01*
X86041Y112734D02*
X84541Y112734D01*
X82041Y105959D02*
X82041Y104459D01*
X76541Y104459D01*
X76541Y105959D01*
X82041Y105959D01*
X82041Y105884D02*
X76541Y105884D01*
X82041Y100959D02*
X82041Y99459D01*
X76541Y99459D01*
X76541Y100959D01*
X82041Y100959D01*
X82041Y100884D02*
X76541Y100884D01*
X82041Y95959D02*
X82041Y94459D01*
X76541Y94459D01*
X76541Y95959D01*
X82041Y95959D01*
X82041Y95884D02*
X76541Y95884D01*
X82041Y90959D02*
X82041Y89459D01*
X76541Y89459D01*
X76541Y90959D01*
X82041Y90959D01*
X82041Y90884D02*
X76541Y90884D01*
X82041Y85959D02*
X82041Y84459D01*
X76541Y84459D01*
X76541Y85959D01*
X82041Y85959D01*
X82041Y85884D02*
X76541Y85884D01*
X82041Y80959D02*
X82041Y79459D01*
X76541Y79459D01*
X76541Y80959D01*
X82041Y80959D01*
X82041Y80884D02*
X76541Y80884D01*
X82041Y75959D02*
X82041Y74459D01*
X76541Y74459D01*
X76541Y75959D01*
X82041Y75959D01*
X82041Y75884D02*
X76541Y75884D01*
X82041Y70959D02*
X82041Y69459D01*
X76541Y69459D01*
X76541Y70959D01*
X82041Y70959D01*
X82041Y70884D02*
X76541Y70884D01*
D18*
X102791Y87709D03*
D19*
X31242Y37338D02*
X4318Y37338D01*
X4318Y51562D01*
X31242Y51562D01*
X31242Y37338D01*
X31242Y40716D02*
X4318Y40716D01*
X4318Y44094D02*
X31242Y44094D01*
X31242Y47472D02*
X4318Y47472D01*
X4318Y50850D02*
X31242Y50850D01*
X31242Y62738D02*
X4318Y62738D01*
X4318Y76962D01*
X31242Y76962D01*
X31242Y62738D01*
X31242Y66116D02*
X4318Y66116D01*
X4318Y69494D02*
X31242Y69494D01*
X31242Y72872D02*
X4318Y72872D01*
X4318Y76250D02*
X31242Y76250D01*
X31242Y88138D02*
X4318Y88138D01*
X4318Y102362D01*
X31242Y102362D01*
X31242Y88138D01*
X31242Y91516D02*
X4318Y91516D01*
X4318Y94894D02*
X31242Y94894D01*
X31242Y98272D02*
X4318Y98272D01*
X4318Y101650D02*
X31242Y101650D01*
D20*
X44450Y131763D03*
X57150Y131763D03*
X69850Y131763D03*
X120650Y131763D03*
X107950Y131763D03*
X95250Y131763D03*
X82550Y131763D03*
X127000Y7938D03*
X139700Y7938D03*
X152400Y7938D03*
X165100Y7938D03*
X177800Y7938D03*
X190500Y7938D03*
X107950Y7938D03*
X95250Y7938D03*
X82550Y7938D03*
X190500Y131763D03*
X177800Y131763D03*
X165100Y131763D03*
X152400Y131763D03*
X139700Y131763D03*
D21*
X100291Y111209D02*
X100291Y90209D01*
X102791Y87709D01*
X105291Y72747D02*
X105291Y64209D01*
X105291Y72747D02*
X108347Y75803D01*
X108347Y82153D01*
X102791Y87709D01*
D22*
X175419Y93894D02*
X177800Y93894D01*
X175419Y93894D02*
X166919Y102394D01*
X161131Y102394D01*
D23*
X161131Y102394D03*
X112316Y97234D03*
X93266Y78184D03*
D21*
X102791Y75581D02*
X102791Y87709D01*
X94925Y67715D02*
X94925Y64575D01*
X95291Y64209D01*
X94925Y67715D02*
X102791Y75581D01*
D24*
X78581Y38100D02*
X65580Y38100D01*
X78581Y38100D02*
X99219Y38100D01*
X106925Y30394D02*
X113903Y30394D01*
X106925Y30394D02*
X99219Y38100D01*
D23*
X78581Y38100D03*
D25*
X138303Y47816D02*
X138906Y48419D01*
D24*
X177800Y79938D02*
X177800Y93894D01*
D25*
X100291Y85209D02*
X100291Y111209D01*
X100291Y85209D02*
X93266Y78184D01*
X124305Y40795D02*
X131325Y47816D01*
X138303Y47816D01*
D24*
X124305Y40795D02*
X113903Y30394D01*
X124305Y40795D02*
X124243Y40857D01*
D23*
X124243Y40857D03*
X92472Y98822D03*
D25*
X100291Y102672D02*
X100291Y111209D01*
X100291Y102672D02*
X96441Y98822D01*
X92472Y98822D01*
D24*
X65580Y38100D02*
X51881Y38100D01*
X48419Y41563D01*
X21938Y41563D01*
X17780Y44450D01*
D21*
X110291Y60325D02*
X110291Y64209D01*
X110291Y60325D02*
X110331Y60325D01*
X98400Y48394D01*
X97631Y48394D01*
X96838Y47600D02*
X91582Y47600D01*
D23*
X161925Y111919D03*
D22*
X161925Y113506D01*
X167481Y119063D01*
D24*
X161925Y111919D02*
X162950Y110894D01*
X177800Y110894D01*
D21*
X100291Y64209D02*
X100291Y51053D01*
X97631Y48394D01*
X96838Y47600D01*
D24*
X113903Y47394D02*
X119119Y52609D01*
X123996Y52609D01*
D23*
X123996Y52609D03*
D25*
X91582Y47600D02*
X81497Y47600D01*
X52784Y87147D02*
X46159Y87147D01*
X41275Y82263D01*
D26*
X70803Y56515D02*
X79718Y47600D01*
X81497Y47600D01*
D24*
X64641Y56515D02*
X48419Y72738D01*
X41275Y79881D02*
X41275Y82263D01*
X64641Y56515D02*
X70803Y56515D01*
D23*
X41275Y82263D03*
D25*
X115291Y111209D02*
X116505Y112423D01*
X116505Y115217D01*
X120211Y118923D01*
X135870Y118923D01*
X143814Y110979D02*
X143814Y110867D01*
D23*
X143814Y110867D03*
D25*
X143814Y110979D02*
X135870Y118923D01*
D24*
X48419Y72738D02*
X48419Y69563D01*
X48419Y72738D02*
X41275Y79881D01*
D25*
X76116Y85209D02*
X79291Y85209D01*
D23*
X60325Y114300D03*
D25*
X57178Y104147D02*
X52784Y104147D01*
X57178Y104147D02*
X76116Y85209D01*
X52784Y104147D02*
X60325Y111688D01*
X60325Y114300D01*
D23*
X127397Y113109D03*
D25*
X125497Y111209D01*
X120291Y111209D01*
D23*
X148034Y86261D03*
D25*
X148034Y96838D02*
X139663Y105209D01*
X126291Y105209D01*
X148034Y96838D02*
X148034Y86261D01*
D23*
X190782Y43081D03*
D25*
X190782Y117475D01*
X177800Y130457D01*
X177800Y131763D01*
D23*
X141939Y93917D03*
D25*
X135647Y100209D01*
X126291Y100209D01*
X60570Y93094D02*
X58438Y95227D01*
X75094Y75209D02*
X79291Y75209D01*
X75094Y75209D02*
X70671Y79633D01*
X65035Y79633D01*
X60570Y84097D01*
X60570Y93094D01*
X19073Y95227D02*
X17780Y95250D01*
X19073Y95227D02*
X58438Y95227D01*
D23*
X162624Y80455D03*
D25*
X155456Y80447D02*
X134228Y80447D01*
X129466Y85209D01*
X126291Y85209D01*
X155493Y80483D02*
X162624Y80455D01*
X155493Y80483D02*
X155456Y80447D01*
D23*
X162365Y71478D03*
D25*
X156808Y77034D02*
X132641Y77034D01*
X129466Y80209D01*
X126291Y80209D01*
X156808Y77034D02*
X162365Y71478D01*
D24*
X177800Y62938D02*
X177800Y49378D01*
D25*
X177800Y62938D02*
X169232Y71506D01*
X95291Y111209D02*
X95291Y113591D01*
X95084Y113797D01*
X119432Y123686D02*
X127878Y123686D01*
X119432Y123686D02*
X112742Y116995D01*
X98283Y116995D02*
X95084Y113797D01*
X98283Y116995D02*
X112742Y116995D01*
X169232Y82070D02*
X169232Y71506D01*
X150813Y100489D02*
X150813Y115888D01*
X150813Y100489D02*
X169232Y82070D01*
X150813Y115888D02*
X142875Y123825D01*
X128017Y123825D01*
X127878Y123686D01*
X65580Y28600D02*
X65605Y28575D01*
X74613Y28575D02*
X83344Y19844D01*
X85725Y19844D01*
X88900Y19844D02*
X130969Y19844D01*
X137319Y26194D01*
X74613Y28575D02*
X65605Y28575D01*
X174625Y29203D02*
X177800Y32378D01*
X174625Y29203D02*
X156997Y29203D01*
X153194Y25400D01*
X153194Y23019D01*
X153325Y23019D01*
D23*
X153325Y23019D03*
X137319Y26194D03*
D24*
X95250Y13494D02*
X88900Y19844D01*
X95250Y13494D02*
X95250Y7938D01*
X88900Y19844D02*
X85725Y19844D01*
X81756Y19844D01*
X73000Y28600D01*
X65580Y28600D01*
X24606Y69850D02*
X17780Y69850D01*
X39688Y54769D02*
X54857Y54769D01*
X39688Y54769D02*
X24606Y69850D01*
X63129Y47600D02*
X65580Y47600D01*
X65580Y28600D02*
X65555Y28575D01*
D23*
X53181Y28575D03*
X54218Y55408D03*
D24*
X54857Y54769D02*
X55960Y54769D01*
X54857Y54769D02*
X54218Y55408D01*
X55960Y54769D02*
X63129Y47600D01*
X65555Y28575D02*
X53181Y28575D01*
D25*
X115291Y60922D02*
X115291Y64209D01*
X117789Y58423D02*
X126686Y58423D01*
X128681Y60419D02*
X138906Y60419D01*
X117789Y58423D02*
X115291Y60922D01*
X126686Y58423D02*
X128681Y60419D01*
X129007Y64209D02*
X120291Y64209D01*
X129007Y64209D02*
X130996Y66199D01*
X149649Y66199D01*
X153168Y62680D01*
X153168Y40455D01*
X149131Y36419D02*
X138906Y36419D01*
X149131Y36419D02*
X153168Y40455D01*
X79291Y80209D02*
X78497Y81003D01*
X74268Y81003D01*
X69494Y85777D02*
X67113Y85777D01*
X69494Y85777D02*
X74268Y81003D01*
D23*
X67113Y85777D03*
X51070Y114427D03*
D25*
X44450Y130276D02*
X44450Y131763D01*
X44450Y130276D02*
X51070Y123656D01*
X51070Y114427D01*
X174847Y10890D02*
X177800Y7938D01*
X174847Y10890D02*
X174847Y11583D01*
X163412Y23019D01*
X161925Y23019D01*
D23*
X161925Y23019D03*
X137319Y86519D03*
D25*
X133628Y90209D01*
X126291Y90209D01*
X79291Y70209D02*
X78856Y70644D01*
X74613Y70644D01*
X73025Y72231D02*
X61913Y72231D01*
X73025Y72231D02*
X74613Y70644D01*
D23*
X61913Y72231D03*
D25*
X85291Y65881D02*
X85291Y64209D01*
X85291Y65881D02*
X68263Y65881D01*
X67469Y65088D01*
D23*
X67469Y65088D03*
X78581Y59531D03*
D25*
X87298Y58423D02*
X89870Y60996D01*
X79689Y58423D02*
X78581Y59531D01*
X89870Y60996D02*
X89870Y63789D01*
X90291Y64209D01*
X87298Y58423D02*
X79689Y58423D01*
X126291Y70209D02*
X126333Y70168D01*
X144463Y26786D02*
X144463Y16669D01*
X152400Y8731D01*
X152400Y7938D01*
X149991Y70168D02*
X126333Y70168D01*
X149991Y70168D02*
X156296Y63863D01*
X156296Y38619D01*
X144463Y26786D01*
X131460Y73216D02*
X129466Y75209D01*
X126291Y75209D01*
X131460Y73216D02*
X151254Y73216D01*
X159344Y65126D01*
X159344Y37357D02*
X147511Y25523D01*
X159344Y37357D02*
X159344Y65126D01*
X165100Y9424D02*
X165100Y7938D01*
X165100Y9424D02*
X158649Y15875D01*
X151606Y15875D01*
X147511Y19971D01*
X147511Y25523D01*
X79291Y90209D02*
X77175Y90209D01*
X77152Y90233D01*
X75946Y90233D01*
X66675Y99504D01*
X66675Y120650D02*
X57150Y130175D01*
X57150Y131763D01*
X66675Y120650D02*
X66675Y99504D01*
X78870Y95630D02*
X79291Y95209D01*
X78870Y95630D02*
X76077Y95630D01*
X69850Y101856D01*
X69850Y129381D01*
X69850Y131763D01*
X79291Y100209D02*
X78917Y99836D01*
X76871Y99836D01*
X73422Y103285D01*
X73422Y117078D02*
X82550Y126206D01*
X82550Y131763D01*
X73422Y117078D02*
X73422Y103285D01*
X95250Y130175D02*
X95250Y131763D01*
X79291Y114216D02*
X79291Y105209D01*
X79291Y114216D02*
X95250Y130175D01*
X85725Y111644D02*
X85291Y111209D01*
X85725Y111644D02*
X85725Y114437D01*
X95113Y123825D01*
X101600Y123825D01*
X107950Y130175D01*
X107950Y131763D01*
X90711Y111630D02*
X90291Y111209D01*
X90711Y111630D02*
X90711Y114423D01*
X96811Y120523D01*
X111294Y120523D01*
X120650Y129879D01*
X120650Y131763D01*
M02*
