G04 EAGLE Gerber RS-274X export*
G75*
%MOMM*%
%FSLAX34Y34*%
%LPD*%
%INSilkscreen Top*%
%IPPOS*%
%AMOC8*
5,1,8,0,0,1.08239X$1,22.5*%
G01*
%ADD10C,0.050800*%
%ADD11C,0.025400*%
%ADD12C,0.203200*%
%ADD13C,0.254000*%
%ADD14C,0.127000*%
%ADD15C,0.152400*%
%ADD16C,0.762000*%
%ADD17R,0.508000X0.762000*%
%ADD18R,3.175000X0.762000*%

G36*
X30751Y3321D02*
X30751Y3321D01*
X30859Y3331D01*
X30872Y3337D01*
X30886Y3339D01*
X30983Y3387D01*
X31082Y3432D01*
X31096Y3443D01*
X31104Y3447D01*
X31120Y3463D01*
X31196Y3525D01*
X33781Y6110D01*
X33844Y6199D01*
X33911Y6284D01*
X33915Y6297D01*
X33923Y6309D01*
X33955Y6412D01*
X33990Y6515D01*
X33990Y6529D01*
X33994Y6542D01*
X33991Y6650D01*
X33991Y6759D01*
X33987Y6772D01*
X33986Y6786D01*
X33948Y6888D01*
X33914Y6990D01*
X33904Y7005D01*
X33900Y7014D01*
X33886Y7031D01*
X33832Y7113D01*
X31068Y10503D01*
X31625Y11585D01*
X31632Y11605D01*
X31673Y11700D01*
X32044Y12859D01*
X36395Y13302D01*
X36500Y13330D01*
X36605Y13355D01*
X36617Y13362D01*
X36631Y13365D01*
X36721Y13426D01*
X36813Y13483D01*
X36822Y13494D01*
X36833Y13502D01*
X36899Y13588D01*
X36968Y13672D01*
X36973Y13685D01*
X36981Y13696D01*
X37016Y13799D01*
X37054Y13900D01*
X37056Y13918D01*
X37059Y13927D01*
X37059Y13949D01*
X37069Y14047D01*
X37069Y17703D01*
X37051Y17810D01*
X37037Y17918D01*
X37031Y17930D01*
X37029Y17944D01*
X36978Y18040D01*
X36930Y18137D01*
X36920Y18147D01*
X36914Y18159D01*
X36835Y18233D01*
X36758Y18310D01*
X36746Y18316D01*
X36736Y18326D01*
X36637Y18371D01*
X36540Y18419D01*
X36522Y18423D01*
X36514Y18427D01*
X36492Y18429D01*
X36395Y18448D01*
X32044Y18891D01*
X31673Y20050D01*
X31664Y20067D01*
X31662Y20075D01*
X31658Y20082D01*
X31625Y20165D01*
X31068Y21247D01*
X33832Y24637D01*
X33886Y24731D01*
X33943Y24823D01*
X33946Y24836D01*
X33953Y24848D01*
X33974Y24955D01*
X33999Y25060D01*
X33998Y25074D01*
X34000Y25088D01*
X33986Y25195D01*
X33975Y25303D01*
X33969Y25316D01*
X33968Y25330D01*
X33919Y25427D01*
X33875Y25526D01*
X33863Y25539D01*
X33859Y25548D01*
X33844Y25563D01*
X33781Y25640D01*
X31196Y28225D01*
X31108Y28288D01*
X31022Y28354D01*
X31009Y28359D01*
X30998Y28367D01*
X30894Y28398D01*
X30791Y28434D01*
X30777Y28434D01*
X30764Y28438D01*
X30656Y28434D01*
X30547Y28435D01*
X30534Y28430D01*
X30520Y28430D01*
X30419Y28392D01*
X30316Y28357D01*
X30301Y28348D01*
X30292Y28344D01*
X30275Y28330D01*
X30193Y28276D01*
X26803Y25512D01*
X25721Y26069D01*
X25702Y26075D01*
X25606Y26117D01*
X24447Y26488D01*
X24005Y30839D01*
X23976Y30943D01*
X23952Y31049D01*
X23944Y31061D01*
X23941Y31074D01*
X23880Y31164D01*
X23823Y31257D01*
X23812Y31265D01*
X23805Y31277D01*
X23718Y31343D01*
X23635Y31412D01*
X23622Y31416D01*
X23611Y31425D01*
X23508Y31459D01*
X23406Y31498D01*
X23389Y31499D01*
X23379Y31503D01*
X23358Y31503D01*
X23259Y31512D01*
X19603Y31512D01*
X19496Y31495D01*
X19389Y31481D01*
X19376Y31475D01*
X19363Y31473D01*
X19267Y31421D01*
X19169Y31374D01*
X19159Y31364D01*
X19147Y31358D01*
X19073Y31278D01*
X18996Y31202D01*
X18990Y31190D01*
X18980Y31180D01*
X18936Y31081D01*
X18887Y30984D01*
X18884Y30966D01*
X18880Y30957D01*
X18877Y30936D01*
X18858Y30839D01*
X18415Y26488D01*
X17256Y26117D01*
X17238Y26107D01*
X17142Y26069D01*
X16059Y25512D01*
X12670Y28276D01*
X12576Y28330D01*
X12484Y28387D01*
X12470Y28390D01*
X12458Y28397D01*
X12352Y28418D01*
X12246Y28443D01*
X12232Y28441D01*
X12219Y28444D01*
X12111Y28429D01*
X12003Y28419D01*
X11990Y28413D01*
X11977Y28411D01*
X11880Y28363D01*
X11781Y28318D01*
X11767Y28307D01*
X11758Y28303D01*
X11743Y28287D01*
X11666Y28225D01*
X9081Y25640D01*
X9018Y25551D01*
X8952Y25466D01*
X8947Y25453D01*
X8939Y25441D01*
X8908Y25338D01*
X8873Y25235D01*
X8872Y25221D01*
X8868Y25208D01*
X8872Y25100D01*
X8872Y24991D01*
X8876Y24978D01*
X8876Y24964D01*
X8915Y24862D01*
X8949Y24760D01*
X8959Y24745D01*
X8962Y24736D01*
X8976Y24719D01*
X9031Y24637D01*
X11794Y21247D01*
X11237Y20165D01*
X11231Y20145D01*
X11190Y20050D01*
X10818Y18891D01*
X6467Y18448D01*
X6363Y18420D01*
X6257Y18395D01*
X6245Y18388D01*
X6232Y18385D01*
X6142Y18324D01*
X6050Y18267D01*
X6041Y18256D01*
X6029Y18248D01*
X5964Y18162D01*
X5895Y18078D01*
X5890Y18065D01*
X5882Y18054D01*
X5847Y17951D01*
X5809Y17850D01*
X5807Y17832D01*
X5804Y17823D01*
X5804Y17801D01*
X5794Y17703D01*
X5794Y14047D01*
X5812Y13940D01*
X5825Y13832D01*
X5831Y13820D01*
X5834Y13806D01*
X5885Y13710D01*
X5932Y13613D01*
X5942Y13603D01*
X5949Y13591D01*
X6028Y13517D01*
X6104Y13440D01*
X6117Y13434D01*
X6127Y13424D01*
X6225Y13379D01*
X6323Y13331D01*
X6340Y13327D01*
X6349Y13323D01*
X6371Y13321D01*
X6467Y13302D01*
X10818Y12859D01*
X11190Y11700D01*
X11199Y11682D01*
X11237Y11585D01*
X11794Y10503D01*
X9031Y7113D01*
X8977Y7019D01*
X8919Y6927D01*
X8916Y6914D01*
X8909Y6902D01*
X8888Y6795D01*
X8864Y6690D01*
X8865Y6676D01*
X8862Y6662D01*
X8877Y6555D01*
X8887Y6447D01*
X8893Y6434D01*
X8895Y6421D01*
X8943Y6323D01*
X8988Y6224D01*
X8999Y6211D01*
X9003Y6202D01*
X9019Y6187D01*
X9081Y6110D01*
X11666Y3525D01*
X11755Y3462D01*
X11840Y3396D01*
X11854Y3391D01*
X11865Y3383D01*
X11968Y3352D01*
X12071Y3316D01*
X12085Y3316D01*
X12098Y3312D01*
X12207Y3316D01*
X12315Y3315D01*
X12328Y3320D01*
X12342Y3320D01*
X12444Y3358D01*
X12547Y3393D01*
X12561Y3402D01*
X12571Y3406D01*
X12587Y3420D01*
X12670Y3474D01*
X16059Y6238D01*
X17141Y5681D01*
X17194Y5664D01*
X17243Y5638D01*
X17309Y5627D01*
X17373Y5606D01*
X17429Y5607D01*
X17484Y5598D01*
X17550Y5609D01*
X17617Y5610D01*
X17670Y5628D01*
X17724Y5637D01*
X17784Y5669D01*
X17847Y5692D01*
X17891Y5726D01*
X17940Y5752D01*
X17986Y5801D01*
X18039Y5843D01*
X18069Y5890D01*
X18107Y5930D01*
X18163Y6035D01*
X18171Y6048D01*
X18172Y6053D01*
X18176Y6060D01*
X20329Y11257D01*
X20349Y11341D01*
X20355Y11353D01*
X20356Y11369D01*
X20381Y11455D01*
X20380Y11475D01*
X20385Y11495D01*
X20377Y11577D01*
X20379Y11596D01*
X20374Y11616D01*
X20370Y11699D01*
X20363Y11718D01*
X20361Y11738D01*
X20330Y11807D01*
X20323Y11834D01*
X20308Y11858D01*
X20282Y11927D01*
X20269Y11942D01*
X20260Y11960D01*
X20215Y12009D01*
X20195Y12041D01*
X20164Y12067D01*
X20124Y12113D01*
X20103Y12128D01*
X20094Y12138D01*
X20072Y12150D01*
X20009Y12194D01*
X20006Y12196D01*
X20005Y12196D01*
X20003Y12198D01*
X19119Y12693D01*
X18440Y13320D01*
X17926Y14089D01*
X17606Y14957D01*
X17498Y15874D01*
X17611Y16809D01*
X17943Y17690D01*
X18474Y18467D01*
X19175Y19096D01*
X20005Y19539D01*
X20917Y19773D01*
X21859Y19783D01*
X22776Y19569D01*
X23615Y19144D01*
X24330Y18531D01*
X24878Y17766D01*
X25229Y16892D01*
X25362Y15960D01*
X25270Y15023D01*
X24958Y14135D01*
X24443Y13347D01*
X23757Y12703D01*
X22858Y12197D01*
X22817Y12164D01*
X22776Y12142D01*
X22745Y12109D01*
X22696Y12074D01*
X22684Y12057D01*
X22667Y12044D01*
X22633Y11990D01*
X22609Y11964D01*
X22595Y11933D01*
X22554Y11876D01*
X22547Y11856D01*
X22536Y11838D01*
X22518Y11765D01*
X22508Y11742D01*
X22506Y11718D01*
X22483Y11643D01*
X22483Y11622D01*
X22478Y11601D01*
X22486Y11517D01*
X22484Y11499D01*
X22488Y11483D01*
X22490Y11399D01*
X22498Y11373D01*
X22499Y11358D01*
X22509Y11336D01*
X22533Y11257D01*
X22842Y10512D01*
X23152Y9763D01*
X23462Y9014D01*
X23463Y9014D01*
X23463Y9013D01*
X23773Y8265D01*
X23773Y8264D01*
X24083Y7515D01*
X24394Y6766D01*
X24686Y6060D01*
X24715Y6013D01*
X24736Y5961D01*
X24779Y5910D01*
X24815Y5853D01*
X24858Y5818D01*
X24894Y5775D01*
X24951Y5741D01*
X25004Y5698D01*
X25056Y5679D01*
X25103Y5650D01*
X25169Y5636D01*
X25232Y5612D01*
X25287Y5610D01*
X25342Y5599D01*
X25408Y5606D01*
X25476Y5604D01*
X25529Y5620D01*
X25584Y5627D01*
X25695Y5671D01*
X25709Y5675D01*
X25713Y5678D01*
X25721Y5681D01*
X26803Y6238D01*
X30193Y3474D01*
X30287Y3420D01*
X30379Y3363D01*
X30392Y3360D01*
X30404Y3353D01*
X30511Y3332D01*
X30617Y3307D01*
X30630Y3309D01*
X30644Y3306D01*
X30751Y3321D01*
G37*
D10*
X7613Y110430D02*
X6850Y111192D01*
X5325Y111192D01*
X4562Y110430D01*
X4562Y109667D01*
X5325Y108904D01*
X6850Y108904D01*
X7613Y108142D01*
X7613Y107379D01*
X6850Y106617D01*
X5325Y106617D01*
X4562Y107379D01*
X9240Y106617D02*
X9240Y111192D01*
X11528Y111192D01*
X12291Y110430D01*
X12291Y109667D01*
X11528Y108904D01*
X12291Y108142D01*
X12291Y107379D01*
X11528Y106617D01*
X9240Y106617D01*
X9240Y108904D02*
X11528Y108904D01*
X13918Y107379D02*
X13918Y111192D01*
X13918Y107379D02*
X14680Y106617D01*
X16206Y106617D01*
X16968Y107379D01*
X16968Y111192D01*
X20883Y111192D02*
X21646Y110430D01*
X20883Y111192D02*
X19358Y111192D01*
X18595Y110430D01*
X18595Y109667D01*
X19358Y108904D01*
X20883Y108904D01*
X21646Y108142D01*
X21646Y107379D01*
X20883Y106617D01*
X19358Y106617D01*
X18595Y107379D01*
X23273Y106617D02*
X26323Y111192D01*
X29476Y111192D02*
X29476Y106617D01*
X27950Y111192D02*
X31001Y111192D01*
X32628Y111192D02*
X35679Y106617D01*
X32628Y106617D02*
X35679Y111192D01*
X38068Y111192D02*
X39593Y111192D01*
X38068Y111192D02*
X37306Y110430D01*
X37306Y107379D01*
X38068Y106617D01*
X39593Y106617D01*
X40356Y107379D01*
X40356Y110430D01*
X39593Y111192D01*
X13124Y84999D02*
X13124Y81948D01*
X14649Y80423D01*
X16174Y81948D01*
X16174Y84999D01*
X17801Y84999D02*
X17801Y80423D01*
X17801Y84999D02*
X20089Y84999D01*
X20852Y84236D01*
X20852Y83473D01*
X20089Y82711D01*
X20852Y81948D01*
X20852Y81185D01*
X20089Y80423D01*
X17801Y80423D01*
X17801Y82711D02*
X20089Y82711D01*
X22479Y83473D02*
X22479Y80423D01*
X22479Y83473D02*
X24004Y84999D01*
X25530Y83473D01*
X25530Y80423D01*
X25530Y82711D02*
X22479Y82711D01*
X28682Y80423D02*
X28682Y84999D01*
X27157Y84999D02*
X30207Y84999D01*
X17751Y59599D02*
X18513Y58836D01*
X17751Y59599D02*
X16225Y59599D01*
X15463Y58836D01*
X15463Y55785D01*
X16225Y55023D01*
X17751Y55023D01*
X18513Y55785D01*
X18513Y57311D01*
X16988Y57311D01*
X20140Y55023D02*
X20140Y59599D01*
X23191Y55023D01*
X23191Y59599D01*
X24818Y59599D02*
X24818Y55023D01*
X27106Y55023D01*
X27868Y55785D01*
X27868Y58836D01*
X27106Y59599D01*
X24818Y59599D01*
D11*
X37206Y119983D02*
X37206Y123797D01*
X39113Y123797D01*
X39748Y123161D01*
X39748Y121890D01*
X39113Y121254D01*
X37206Y121254D01*
X38477Y121254D02*
X39748Y119983D01*
X43491Y119983D02*
X40948Y123797D01*
X43491Y123797D02*
X40948Y119983D01*
X44690Y119983D02*
X45962Y119983D01*
X45326Y119983D02*
X45326Y123797D01*
X44690Y123797D02*
X45962Y123797D01*
X51983Y123797D02*
X52619Y123161D01*
X51983Y123797D02*
X50712Y123797D01*
X50076Y123161D01*
X50076Y122525D01*
X50712Y121890D01*
X51983Y121890D01*
X52619Y121254D01*
X52619Y120619D01*
X51983Y119983D01*
X50712Y119983D01*
X50076Y120619D01*
X55725Y123797D02*
X56361Y123161D01*
X55725Y123797D02*
X54454Y123797D01*
X53818Y123161D01*
X53818Y120619D01*
X54454Y119983D01*
X55725Y119983D01*
X56361Y120619D01*
X57561Y119983D02*
X57561Y123797D01*
X57561Y119983D02*
X60103Y119983D01*
X64683Y123797D02*
X65319Y123161D01*
X64683Y123797D02*
X63412Y123797D01*
X62776Y123161D01*
X62776Y122525D01*
X63412Y121890D01*
X64683Y121890D01*
X65319Y121254D01*
X65319Y120619D01*
X64683Y119983D01*
X63412Y119983D01*
X62776Y120619D01*
X66518Y119983D02*
X66518Y123797D01*
X66518Y119983D02*
X68425Y119983D01*
X69061Y120619D01*
X69061Y123161D01*
X68425Y123797D01*
X66518Y123797D01*
X70261Y122525D02*
X70261Y119983D01*
X70261Y122525D02*
X71532Y123797D01*
X72803Y122525D01*
X72803Y119983D01*
X72803Y121890D02*
X70261Y121890D01*
X136121Y123797D02*
X136756Y123161D01*
X136121Y123797D02*
X134849Y123797D01*
X134214Y123161D01*
X134214Y120619D01*
X134849Y119983D01*
X136121Y119983D01*
X136756Y120619D01*
X136756Y121890D01*
X135485Y121890D01*
X137956Y119983D02*
X137956Y123797D01*
X140498Y119983D01*
X140498Y123797D01*
X141698Y123797D02*
X141698Y119983D01*
X143605Y119983D01*
X144240Y120619D01*
X144240Y123161D01*
X143605Y123797D01*
X141698Y123797D01*
X146914Y123797D02*
X146914Y119983D01*
X146914Y123797D02*
X148821Y123797D01*
X149456Y123161D01*
X149456Y121890D01*
X148821Y121254D01*
X146914Y121254D01*
X148185Y121254D02*
X149456Y119983D01*
X150656Y123797D02*
X153198Y123797D01*
X150656Y123797D02*
X150656Y119983D01*
X153198Y119983D01*
X151927Y121890D02*
X150656Y121890D01*
X156305Y123797D02*
X156940Y123161D01*
X156305Y123797D02*
X155034Y123797D01*
X154398Y123161D01*
X154398Y122525D01*
X155034Y121890D01*
X156305Y121890D01*
X156940Y121254D01*
X156940Y120619D01*
X156305Y119983D01*
X155034Y119983D01*
X154398Y120619D01*
X161521Y123797D02*
X162156Y123161D01*
X161521Y123797D02*
X160249Y123797D01*
X159614Y123161D01*
X159614Y122525D01*
X160249Y121890D01*
X161521Y121890D01*
X162156Y121254D01*
X162156Y120619D01*
X161521Y119983D01*
X160249Y119983D01*
X159614Y120619D01*
X165263Y123797D02*
X165898Y123161D01*
X165263Y123797D02*
X163992Y123797D01*
X163356Y123161D01*
X163356Y120619D01*
X163992Y119983D01*
X165263Y119983D01*
X165898Y120619D01*
X167098Y119983D02*
X167098Y123797D01*
X169640Y123797D02*
X167098Y121254D01*
X167734Y121890D02*
X169640Y119983D01*
X174809Y119983D02*
X174809Y123797D01*
X176080Y122525D01*
X177351Y123797D01*
X177351Y119983D01*
X178551Y119983D02*
X179822Y119983D01*
X179186Y119983D02*
X179186Y123797D01*
X178551Y123797D02*
X179822Y123797D01*
X186885Y123797D02*
X186885Y119983D01*
X188156Y122525D02*
X186885Y123797D01*
X188156Y122525D02*
X189427Y123797D01*
X189427Y119983D01*
X191263Y123797D02*
X192534Y123797D01*
X191263Y123797D02*
X190627Y123161D01*
X190627Y120619D01*
X191263Y119983D01*
X192534Y119983D01*
X193169Y120619D01*
X193169Y123161D01*
X192534Y123797D01*
X79729Y122525D02*
X79729Y119983D01*
X79729Y122525D02*
X81000Y123797D01*
X82271Y122525D01*
X82271Y119983D01*
X82271Y121890D02*
X79729Y121890D01*
X83471Y123161D02*
X84106Y123797D01*
X85377Y123797D01*
X86013Y123161D01*
X86013Y122525D01*
X85377Y121890D01*
X84742Y121890D01*
X85377Y121890D02*
X86013Y121254D01*
X86013Y120619D01*
X85377Y119983D01*
X84106Y119983D01*
X83471Y120619D01*
X92429Y119983D02*
X92429Y122525D01*
X93700Y123797D01*
X94971Y122525D01*
X94971Y119983D01*
X94971Y121890D02*
X92429Y121890D01*
X96171Y119983D02*
X98713Y119983D01*
X96171Y119983D02*
X98713Y122525D01*
X98713Y123161D01*
X98077Y123797D01*
X96806Y123797D01*
X96171Y123161D01*
X105922Y122525D02*
X105922Y119983D01*
X105922Y122525D02*
X107194Y123797D01*
X108465Y122525D01*
X108465Y119983D01*
X108465Y121890D02*
X105922Y121890D01*
X109665Y122525D02*
X110936Y123797D01*
X110936Y119983D01*
X109665Y119983D02*
X112207Y119983D01*
X117035Y119983D02*
X117035Y122525D01*
X118306Y123797D01*
X119577Y122525D01*
X119577Y119983D01*
X119577Y121890D02*
X117035Y121890D01*
X120777Y120619D02*
X120777Y123161D01*
X121413Y123797D01*
X122684Y123797D01*
X123319Y123161D01*
X123319Y120619D01*
X122684Y119983D01*
X121413Y119983D01*
X120777Y120619D01*
X123319Y123161D01*
X124179Y19022D02*
X124179Y15208D01*
X126085Y15208D01*
X126721Y15844D01*
X126721Y18386D01*
X126085Y19022D01*
X124179Y19022D01*
X127921Y18386D02*
X128556Y19022D01*
X129827Y19022D01*
X130463Y18386D01*
X130463Y17750D01*
X129827Y17115D01*
X129192Y17115D01*
X129827Y17115D02*
X130463Y16479D01*
X130463Y15844D01*
X129827Y15208D01*
X128556Y15208D01*
X127921Y15844D01*
X136879Y15208D02*
X136879Y19022D01*
X136879Y15208D02*
X138785Y15208D01*
X139421Y15844D01*
X139421Y18386D01*
X138785Y19022D01*
X136879Y19022D01*
X140621Y15208D02*
X143163Y15208D01*
X140621Y15208D02*
X143163Y17750D01*
X143163Y18386D01*
X142527Y19022D01*
X141256Y19022D01*
X140621Y18386D01*
X149579Y19022D02*
X149579Y15208D01*
X151485Y15208D01*
X152121Y15844D01*
X152121Y18386D01*
X151485Y19022D01*
X149579Y19022D01*
X153321Y19022D02*
X155863Y19022D01*
X153321Y19022D02*
X153321Y17115D01*
X154592Y17750D01*
X155227Y17750D01*
X155863Y17115D01*
X155863Y15844D01*
X155227Y15208D01*
X153956Y15208D01*
X153321Y15844D01*
X162279Y15208D02*
X162279Y19022D01*
X162279Y15208D02*
X164185Y15208D01*
X164821Y15844D01*
X164821Y18386D01*
X164185Y19022D01*
X162279Y19022D01*
X167292Y18386D02*
X168563Y19022D01*
X167292Y18386D02*
X166021Y17115D01*
X166021Y15844D01*
X166656Y15208D01*
X167927Y15208D01*
X168563Y15844D01*
X168563Y16479D01*
X167927Y17115D01*
X166021Y17115D01*
X174979Y19022D02*
X174979Y15208D01*
X176885Y15208D01*
X177521Y15844D01*
X177521Y18386D01*
X176885Y19022D01*
X174979Y19022D01*
X178721Y15844D02*
X179356Y15208D01*
X180627Y15208D01*
X181263Y15844D01*
X181263Y18386D01*
X180627Y19022D01*
X179356Y19022D01*
X178721Y18386D01*
X178721Y17750D01*
X179356Y17115D01*
X181263Y17115D01*
X187679Y19022D02*
X187679Y15208D01*
X189585Y15208D01*
X190221Y15844D01*
X190221Y18386D01*
X189585Y19022D01*
X187679Y19022D01*
X193327Y19022D02*
X193327Y15208D01*
X191421Y17115D02*
X193327Y19022D01*
X193963Y17115D02*
X191421Y17115D01*
X103419Y18386D02*
X102783Y19022D01*
X101512Y19022D01*
X100876Y18386D01*
X100876Y15844D01*
X101512Y15208D01*
X102783Y15208D01*
X103419Y15844D01*
X103419Y17115D01*
X102147Y17115D01*
X104618Y15208D02*
X104618Y19022D01*
X107161Y15208D01*
X107161Y19022D01*
X108361Y19022D02*
X108361Y15208D01*
X110267Y15208D01*
X110903Y15844D01*
X110903Y18386D01*
X110267Y19022D01*
X108361Y19022D01*
X85512Y19022D02*
X85512Y16479D01*
X86783Y15208D01*
X88054Y16479D01*
X88054Y19022D01*
X89254Y19022D02*
X89254Y15208D01*
X89254Y19022D02*
X91160Y19022D01*
X91796Y18386D01*
X91796Y17750D01*
X91160Y17115D01*
X91796Y16479D01*
X91796Y15844D01*
X91160Y15208D01*
X89254Y15208D01*
X89254Y17115D02*
X91160Y17115D01*
X92996Y17750D02*
X92996Y15208D01*
X92996Y17750D02*
X94267Y19022D01*
X95538Y17750D01*
X95538Y15208D01*
X95538Y17115D02*
X92996Y17115D01*
X98009Y15208D02*
X98009Y19022D01*
X96738Y19022D02*
X99280Y19022D01*
X73095Y19022D02*
X73095Y16479D01*
X74366Y15208D01*
X75637Y16479D01*
X75637Y19022D01*
X78744Y19022D02*
X79379Y18386D01*
X78744Y19022D02*
X77473Y19022D01*
X76837Y18386D01*
X76837Y15844D01*
X77473Y15208D01*
X78744Y15208D01*
X79379Y15844D01*
X82486Y19022D02*
X83121Y18386D01*
X82486Y19022D02*
X81215Y19022D01*
X80579Y18386D01*
X80579Y15844D01*
X81215Y15208D01*
X82486Y15208D01*
X83121Y15844D01*
D10*
X2139Y131699D02*
X2139Y136275D01*
X5189Y131699D01*
X5189Y136275D01*
X7579Y134750D02*
X9104Y134750D01*
X9867Y133987D01*
X9867Y131699D01*
X7579Y131699D01*
X6816Y132462D01*
X7579Y133224D01*
X9867Y133224D01*
X11494Y131699D02*
X11494Y134750D01*
X13782Y134750D01*
X14544Y133987D01*
X14544Y131699D01*
X16934Y131699D02*
X18459Y131699D01*
X19222Y132462D01*
X19222Y133987D01*
X18459Y134750D01*
X16934Y134750D01*
X16171Y133987D01*
X16171Y132462D01*
X16934Y131699D01*
X25527Y131699D02*
X25527Y136275D01*
X27815Y136275D01*
X28577Y135512D01*
X28577Y133987D01*
X27815Y133224D01*
X25527Y133224D01*
X27052Y133224D02*
X28577Y131699D01*
X32492Y136275D02*
X33255Y135512D01*
X32492Y136275D02*
X30967Y136275D01*
X30204Y135512D01*
X30204Y132462D01*
X30967Y131699D01*
X32492Y131699D01*
X33255Y132462D01*
X10324Y128655D02*
X10324Y125604D01*
X11850Y124079D01*
X13375Y125604D01*
X13375Y128655D01*
X15002Y127130D02*
X16527Y128655D01*
X16527Y124079D01*
X15002Y124079D02*
X18053Y124079D01*
X19680Y124079D02*
X19680Y124842D01*
X20442Y124842D01*
X20442Y124079D01*
X19680Y124079D01*
X22018Y127130D02*
X23544Y128655D01*
X23544Y124079D01*
X25069Y124079D02*
X22018Y124079D01*
X39000Y91138D02*
X44593Y91138D01*
X39000Y91138D02*
X39000Y93935D01*
X39932Y94867D01*
X41797Y94867D01*
X42729Y93935D01*
X42729Y91138D01*
X42729Y93003D02*
X44593Y94867D01*
X40864Y96751D02*
X39000Y98616D01*
X44593Y98616D01*
X44593Y100480D02*
X44593Y96751D01*
D12*
X74287Y25400D02*
X82875Y25400D01*
X82875Y50800D02*
X74287Y50800D01*
X85669Y40784D02*
X85669Y35416D01*
D13*
X68421Y54102D03*
D10*
X62802Y10768D02*
X62802Y6107D01*
X63734Y5175D01*
X65598Y5175D01*
X66530Y6107D01*
X66530Y10768D01*
X68415Y8904D02*
X70279Y10768D01*
X70279Y5175D01*
X68415Y5175D02*
X72143Y5175D01*
X100423Y40633D02*
X99491Y41566D01*
X97627Y41566D01*
X96695Y40633D01*
X96695Y36905D01*
X97627Y35973D01*
X99491Y35973D01*
X100423Y36905D01*
X102308Y35973D02*
X106036Y35973D01*
X102308Y35973D02*
X106036Y39701D01*
X106036Y40633D01*
X105104Y41566D01*
X103240Y41566D01*
X102308Y40633D01*
D12*
X60419Y45563D02*
X60419Y30563D01*
X36419Y30563D01*
X36419Y45563D01*
X60419Y65563D02*
X60419Y76563D01*
X56419Y80563D01*
X40419Y80563D01*
X36419Y76563D01*
X36419Y65563D01*
D14*
X38259Y59373D02*
X58579Y59373D01*
D10*
X41944Y26801D02*
X42876Y25868D01*
X41944Y26801D02*
X40080Y26801D01*
X39148Y25868D01*
X39148Y22140D01*
X40080Y21208D01*
X41944Y21208D01*
X42876Y22140D01*
X44761Y24936D02*
X46625Y26801D01*
X46625Y21208D01*
X44761Y21208D02*
X48489Y21208D01*
X187971Y25540D02*
X193564Y25540D01*
X187971Y25540D02*
X187971Y28337D01*
X188903Y29269D01*
X190768Y29269D01*
X191700Y28337D01*
X191700Y25540D01*
X191700Y27405D02*
X193564Y29269D01*
X193564Y31153D02*
X193564Y34882D01*
X193564Y31153D02*
X189835Y34882D01*
X188903Y34882D01*
X187971Y33950D01*
X187971Y32086D01*
X188903Y31153D01*
X187574Y68403D02*
X193167Y68403D01*
X187574Y68403D02*
X187574Y71199D01*
X188506Y72131D01*
X190371Y72131D01*
X191303Y71199D01*
X191303Y68403D01*
X191303Y70267D02*
X193167Y72131D01*
X188506Y74016D02*
X187574Y74948D01*
X187574Y76812D01*
X188506Y77744D01*
X189439Y77744D01*
X190371Y76812D01*
X190371Y75880D01*
X190371Y76812D02*
X191303Y77744D01*
X192235Y77744D01*
X193167Y76812D01*
X193167Y74948D01*
X192235Y74016D01*
X187574Y99774D02*
X188506Y100706D01*
X187574Y99774D02*
X187574Y97910D01*
X188506Y96978D01*
X192235Y96978D01*
X193167Y97910D01*
X193167Y99774D01*
X192235Y100706D01*
X193167Y105387D02*
X187574Y105387D01*
X190371Y102591D01*
X190371Y106319D01*
D12*
X145508Y29708D02*
X132508Y29708D01*
X132508Y67206D02*
X145508Y67206D01*
D14*
X152237Y43441D02*
X153042Y43441D01*
X154652Y45051D01*
X153042Y46661D01*
X152237Y46661D01*
X154652Y45051D02*
X157067Y45051D01*
X157067Y49054D02*
X157067Y52274D01*
X157067Y49054D02*
X153847Y52274D01*
X153042Y52274D01*
X152237Y51469D01*
X152237Y49859D01*
X153042Y49054D01*
D12*
X81291Y65209D02*
X80291Y66209D01*
X80291Y109209D02*
X81291Y110209D01*
X124291Y110209D02*
X125291Y109209D01*
X125291Y66209D02*
X124291Y65209D01*
X77791Y61209D02*
X77793Y61286D01*
X77799Y61363D01*
X77809Y61440D01*
X77823Y61516D01*
X77840Y61591D01*
X77862Y61665D01*
X77887Y61738D01*
X77917Y61810D01*
X77949Y61880D01*
X77986Y61948D01*
X78025Y62014D01*
X78068Y62078D01*
X78115Y62140D01*
X78164Y62199D01*
X78217Y62256D01*
X78272Y62310D01*
X78330Y62361D01*
X78391Y62409D01*
X78454Y62454D01*
X78519Y62495D01*
X78586Y62533D01*
X78655Y62568D01*
X78726Y62598D01*
X78798Y62626D01*
X78872Y62649D01*
X78946Y62669D01*
X79022Y62685D01*
X79098Y62697D01*
X79175Y62705D01*
X79252Y62709D01*
X79330Y62709D01*
X79407Y62705D01*
X79484Y62697D01*
X79560Y62685D01*
X79636Y62669D01*
X79710Y62649D01*
X79784Y62626D01*
X79856Y62598D01*
X79927Y62568D01*
X79996Y62533D01*
X80063Y62495D01*
X80128Y62454D01*
X80191Y62409D01*
X80252Y62361D01*
X80310Y62310D01*
X80365Y62256D01*
X80418Y62199D01*
X80467Y62140D01*
X80514Y62078D01*
X80557Y62014D01*
X80596Y61948D01*
X80633Y61880D01*
X80665Y61810D01*
X80695Y61738D01*
X80720Y61665D01*
X80742Y61591D01*
X80759Y61516D01*
X80773Y61440D01*
X80783Y61363D01*
X80789Y61286D01*
X80791Y61209D01*
X80789Y61132D01*
X80783Y61055D01*
X80773Y60978D01*
X80759Y60902D01*
X80742Y60827D01*
X80720Y60753D01*
X80695Y60680D01*
X80665Y60608D01*
X80633Y60538D01*
X80596Y60470D01*
X80557Y60404D01*
X80514Y60340D01*
X80467Y60278D01*
X80418Y60219D01*
X80365Y60162D01*
X80310Y60108D01*
X80252Y60057D01*
X80191Y60009D01*
X80128Y59964D01*
X80063Y59923D01*
X79996Y59885D01*
X79927Y59850D01*
X79856Y59820D01*
X79784Y59792D01*
X79710Y59769D01*
X79636Y59749D01*
X79560Y59733D01*
X79484Y59721D01*
X79407Y59713D01*
X79330Y59709D01*
X79252Y59709D01*
X79175Y59713D01*
X79098Y59721D01*
X79022Y59733D01*
X78946Y59749D01*
X78872Y59769D01*
X78798Y59792D01*
X78726Y59820D01*
X78655Y59850D01*
X78586Y59885D01*
X78519Y59923D01*
X78454Y59964D01*
X78391Y60009D01*
X78330Y60057D01*
X78272Y60108D01*
X78217Y60162D01*
X78164Y60219D01*
X78115Y60278D01*
X78068Y60340D01*
X78025Y60404D01*
X77986Y60470D01*
X77949Y60538D01*
X77917Y60608D01*
X77887Y60680D01*
X77862Y60753D01*
X77840Y60827D01*
X77823Y60902D01*
X77809Y60978D01*
X77799Y61055D01*
X77793Y61132D01*
X77791Y61209D01*
D14*
X64475Y106072D02*
X64475Y110097D01*
X64475Y106072D02*
X65280Y105267D01*
X66890Y105267D01*
X67695Y106072D01*
X67695Y110097D01*
X70088Y105267D02*
X73308Y105267D01*
X70088Y105267D02*
X73308Y108487D01*
X73308Y109292D01*
X72503Y110097D01*
X70893Y110097D01*
X70088Y109292D01*
D15*
X0Y57150D02*
X0Y31750D01*
X0Y57150D02*
X-25400Y57150D01*
X-25400Y31750D01*
X0Y31750D01*
D16*
X-31750Y44450D02*
X-88900Y44450D01*
D15*
X0Y57150D02*
X0Y82550D01*
X-25400Y82550D01*
X-25400Y57150D01*
D16*
X-31750Y69850D02*
X-88900Y69850D01*
D15*
X0Y82550D02*
X0Y107950D01*
X-25400Y107950D01*
X-25400Y82550D01*
D16*
X-31750Y95250D02*
X-88900Y95250D01*
D17*
X-27940Y44450D03*
X-27940Y69850D03*
X-27940Y95250D03*
D18*
X15875Y44450D03*
X15875Y69850D03*
X15875Y95250D03*
M02*
