G04 EAGLE Gerber RS-274X export*
G75*
%MOMM*%
%FSLAX34Y34*%
%LPD*%
%INSolderpaste Top*%
%IPPOS*%
%AMOC8*
5,1,8,0,0,1.08239X$1,22.5*%
G01*
%ADD10R,1.100000X1.000000*%
%ADD11R,1.200000X0.550000*%
%ADD12R,1.000000X1.100000*%
%ADD13R,1.600000X1.400000*%
%ADD14C,0.450000*%
%ADD15C,0.150000*%
%ADD16R,0.950000X0.950000*%
%ADD17C,0.355600*%


D10*
X52784Y104147D03*
X52784Y87147D03*
D11*
X65580Y47600D03*
X65580Y38100D03*
X65580Y28600D03*
X91582Y28600D03*
X91582Y47600D03*
D12*
X113903Y47394D03*
X113903Y30394D03*
D13*
X48419Y41563D03*
X48419Y69563D03*
D10*
X177800Y49378D03*
X177800Y32378D03*
X177800Y79938D03*
X177800Y62938D03*
D12*
X177800Y110894D03*
X177800Y93894D03*
D14*
X146181Y60419D02*
X131631Y60419D01*
X131631Y48419D02*
X146181Y48419D01*
X146181Y36419D02*
X131631Y36419D01*
D15*
X86041Y61459D02*
X86041Y66959D01*
X86041Y61459D02*
X84541Y61459D01*
X84541Y66959D01*
X86041Y66959D01*
X86041Y62884D02*
X84541Y62884D01*
X84541Y64309D02*
X86041Y64309D01*
X86041Y65734D02*
X84541Y65734D01*
X91041Y66959D02*
X91041Y61459D01*
X89541Y61459D01*
X89541Y66959D01*
X91041Y66959D01*
X91041Y62884D02*
X89541Y62884D01*
X89541Y64309D02*
X91041Y64309D01*
X91041Y65734D02*
X89541Y65734D01*
X96041Y66959D02*
X96041Y61459D01*
X94541Y61459D01*
X94541Y66959D01*
X96041Y66959D01*
X96041Y62884D02*
X94541Y62884D01*
X94541Y64309D02*
X96041Y64309D01*
X96041Y65734D02*
X94541Y65734D01*
X101041Y66959D02*
X101041Y61459D01*
X99541Y61459D01*
X99541Y66959D01*
X101041Y66959D01*
X101041Y62884D02*
X99541Y62884D01*
X99541Y64309D02*
X101041Y64309D01*
X101041Y65734D02*
X99541Y65734D01*
X106041Y66959D02*
X106041Y61459D01*
X104541Y61459D01*
X104541Y66959D01*
X106041Y66959D01*
X106041Y62884D02*
X104541Y62884D01*
X104541Y64309D02*
X106041Y64309D01*
X106041Y65734D02*
X104541Y65734D01*
X111041Y66959D02*
X111041Y61459D01*
X109541Y61459D01*
X109541Y66959D01*
X111041Y66959D01*
X111041Y62884D02*
X109541Y62884D01*
X109541Y64309D02*
X111041Y64309D01*
X111041Y65734D02*
X109541Y65734D01*
X116041Y66959D02*
X116041Y61459D01*
X114541Y61459D01*
X114541Y66959D01*
X116041Y66959D01*
X116041Y62884D02*
X114541Y62884D01*
X114541Y64309D02*
X116041Y64309D01*
X116041Y65734D02*
X114541Y65734D01*
X121041Y66959D02*
X121041Y61459D01*
X119541Y61459D01*
X119541Y66959D01*
X121041Y66959D01*
X121041Y62884D02*
X119541Y62884D01*
X119541Y64309D02*
X121041Y64309D01*
X121041Y65734D02*
X119541Y65734D01*
X129041Y69459D02*
X129041Y70959D01*
X129041Y69459D02*
X123541Y69459D01*
X123541Y70959D01*
X129041Y70959D01*
X129041Y70884D02*
X123541Y70884D01*
X129041Y74459D02*
X129041Y75959D01*
X129041Y74459D02*
X123541Y74459D01*
X123541Y75959D01*
X129041Y75959D01*
X129041Y75884D02*
X123541Y75884D01*
X129041Y79459D02*
X129041Y80959D01*
X129041Y79459D02*
X123541Y79459D01*
X123541Y80959D01*
X129041Y80959D01*
X129041Y80884D02*
X123541Y80884D01*
X129041Y84459D02*
X129041Y85959D01*
X129041Y84459D02*
X123541Y84459D01*
X123541Y85959D01*
X129041Y85959D01*
X129041Y85884D02*
X123541Y85884D01*
X129041Y89459D02*
X129041Y90959D01*
X129041Y89459D02*
X123541Y89459D01*
X123541Y90959D01*
X129041Y90959D01*
X129041Y90884D02*
X123541Y90884D01*
X129041Y94459D02*
X129041Y95959D01*
X129041Y94459D02*
X123541Y94459D01*
X123541Y95959D01*
X129041Y95959D01*
X129041Y95884D02*
X123541Y95884D01*
X129041Y99459D02*
X129041Y100959D01*
X129041Y99459D02*
X123541Y99459D01*
X123541Y100959D01*
X129041Y100959D01*
X129041Y100884D02*
X123541Y100884D01*
X129041Y104459D02*
X129041Y105959D01*
X129041Y104459D02*
X123541Y104459D01*
X123541Y105959D01*
X129041Y105959D01*
X129041Y105884D02*
X123541Y105884D01*
X121041Y108459D02*
X121041Y113959D01*
X121041Y108459D02*
X119541Y108459D01*
X119541Y113959D01*
X121041Y113959D01*
X121041Y109884D02*
X119541Y109884D01*
X119541Y111309D02*
X121041Y111309D01*
X121041Y112734D02*
X119541Y112734D01*
X116041Y113959D02*
X116041Y108459D01*
X114541Y108459D01*
X114541Y113959D01*
X116041Y113959D01*
X116041Y109884D02*
X114541Y109884D01*
X114541Y111309D02*
X116041Y111309D01*
X116041Y112734D02*
X114541Y112734D01*
X111041Y113959D02*
X111041Y108459D01*
X109541Y108459D01*
X109541Y113959D01*
X111041Y113959D01*
X111041Y109884D02*
X109541Y109884D01*
X109541Y111309D02*
X111041Y111309D01*
X111041Y112734D02*
X109541Y112734D01*
X106041Y113959D02*
X106041Y108459D01*
X104541Y108459D01*
X104541Y113959D01*
X106041Y113959D01*
X106041Y109884D02*
X104541Y109884D01*
X104541Y111309D02*
X106041Y111309D01*
X106041Y112734D02*
X104541Y112734D01*
X101041Y113959D02*
X101041Y108459D01*
X99541Y108459D01*
X99541Y113959D01*
X101041Y113959D01*
X101041Y109884D02*
X99541Y109884D01*
X99541Y111309D02*
X101041Y111309D01*
X101041Y112734D02*
X99541Y112734D01*
X96041Y113959D02*
X96041Y108459D01*
X94541Y108459D01*
X94541Y113959D01*
X96041Y113959D01*
X96041Y109884D02*
X94541Y109884D01*
X94541Y111309D02*
X96041Y111309D01*
X96041Y112734D02*
X94541Y112734D01*
X91041Y113959D02*
X91041Y108459D01*
X89541Y108459D01*
X89541Y113959D01*
X91041Y113959D01*
X91041Y109884D02*
X89541Y109884D01*
X89541Y111309D02*
X91041Y111309D01*
X91041Y112734D02*
X89541Y112734D01*
X86041Y113959D02*
X86041Y108459D01*
X84541Y108459D01*
X84541Y113959D01*
X86041Y113959D01*
X86041Y109884D02*
X84541Y109884D01*
X84541Y111309D02*
X86041Y111309D01*
X86041Y112734D02*
X84541Y112734D01*
X82041Y105959D02*
X82041Y104459D01*
X76541Y104459D01*
X76541Y105959D01*
X82041Y105959D01*
X82041Y105884D02*
X76541Y105884D01*
X82041Y100959D02*
X82041Y99459D01*
X76541Y99459D01*
X76541Y100959D01*
X82041Y100959D01*
X82041Y100884D02*
X76541Y100884D01*
X82041Y95959D02*
X82041Y94459D01*
X76541Y94459D01*
X76541Y95959D01*
X82041Y95959D01*
X82041Y95884D02*
X76541Y95884D01*
X82041Y90959D02*
X82041Y89459D01*
X76541Y89459D01*
X76541Y90959D01*
X82041Y90959D01*
X82041Y90884D02*
X76541Y90884D01*
X82041Y85959D02*
X82041Y84459D01*
X76541Y84459D01*
X76541Y85959D01*
X82041Y85959D01*
X82041Y85884D02*
X76541Y85884D01*
X82041Y80959D02*
X82041Y79459D01*
X76541Y79459D01*
X76541Y80959D01*
X82041Y80959D01*
X82041Y80884D02*
X76541Y80884D01*
X82041Y75959D02*
X82041Y74459D01*
X76541Y74459D01*
X76541Y75959D01*
X82041Y75959D01*
X82041Y75884D02*
X76541Y75884D01*
X82041Y70959D02*
X82041Y69459D01*
X76541Y69459D01*
X76541Y70959D01*
X82041Y70959D01*
X82041Y70884D02*
X76541Y70884D01*
D16*
X95541Y80459D03*
X95541Y94959D03*
X110041Y94959D03*
X110041Y80459D03*
D17*
X31242Y37338D02*
X4318Y37338D01*
X4318Y51562D01*
X31242Y51562D01*
X31242Y37338D01*
X31242Y40716D02*
X4318Y40716D01*
X4318Y44094D02*
X31242Y44094D01*
X31242Y47472D02*
X4318Y47472D01*
X4318Y50850D02*
X31242Y50850D01*
X31242Y62738D02*
X4318Y62738D01*
X4318Y76962D01*
X31242Y76962D01*
X31242Y62738D01*
X31242Y66116D02*
X4318Y66116D01*
X4318Y69494D02*
X31242Y69494D01*
X31242Y72872D02*
X4318Y72872D01*
X4318Y76250D02*
X31242Y76250D01*
X31242Y88138D02*
X4318Y88138D01*
X4318Y102362D01*
X31242Y102362D01*
X31242Y88138D01*
X31242Y91516D02*
X4318Y91516D01*
X4318Y94894D02*
X31242Y94894D01*
X31242Y98272D02*
X4318Y98272D01*
X4318Y101650D02*
X31242Y101650D01*
M02*
