G04 EAGLE Gerber RS-274X export*
G75*
%MOMM*%
%FSLAX34Y34*%
%LPD*%
%INSoldermask Top*%
%IPPOS*%
%AMOC8*
5,1,8,0,0,1.08239X$1,22.5*%
G01*
%ADD10R,1.150800X1.050800*%
%ADD11C,1.104800*%
%ADD12R,1.250800X0.600800*%
%ADD13R,1.050800X1.150800*%
%ADD14R,1.650800X1.450800*%
%ADD15C,0.500800*%
%ADD16R,1.534156X3.495038*%
%ADD17C,0.199953*%
%ADD18R,3.250800X3.250800*%
%ADD19C,0.402334*%
%ADD20R,1.066800X1.066800*%
%ADD21C,0.756400*%


D10*
X52784Y104147D03*
X52784Y87147D03*
D11*
X66244Y17506D03*
D12*
X65580Y47600D03*
X65580Y38100D03*
X65580Y28600D03*
X91582Y28600D03*
X91582Y47600D03*
D13*
X113903Y47394D03*
X113903Y30394D03*
D14*
X48419Y41563D03*
X48419Y69563D03*
D10*
X177800Y49378D03*
X177800Y32378D03*
X177800Y79938D03*
X177800Y62938D03*
D13*
X177800Y110894D03*
X177800Y93894D03*
D15*
X146181Y60419D02*
X131631Y60419D01*
X131631Y48419D02*
X146181Y48419D01*
X146181Y36419D02*
X131631Y36419D01*
D16*
X138881Y48444D03*
D17*
X86045Y61455D02*
X86045Y66963D01*
X86045Y61455D02*
X84537Y61455D01*
X84537Y66963D01*
X86045Y66963D01*
X86045Y63355D02*
X84537Y63355D01*
X84537Y65255D02*
X86045Y65255D01*
X91045Y66963D02*
X91045Y61455D01*
X89537Y61455D01*
X89537Y66963D01*
X91045Y66963D01*
X91045Y63355D02*
X89537Y63355D01*
X89537Y65255D02*
X91045Y65255D01*
X96045Y66963D02*
X96045Y61455D01*
X94537Y61455D01*
X94537Y66963D01*
X96045Y66963D01*
X96045Y63355D02*
X94537Y63355D01*
X94537Y65255D02*
X96045Y65255D01*
X101045Y66963D02*
X101045Y61455D01*
X99537Y61455D01*
X99537Y66963D01*
X101045Y66963D01*
X101045Y63355D02*
X99537Y63355D01*
X99537Y65255D02*
X101045Y65255D01*
X106045Y66963D02*
X106045Y61455D01*
X104537Y61455D01*
X104537Y66963D01*
X106045Y66963D01*
X106045Y63355D02*
X104537Y63355D01*
X104537Y65255D02*
X106045Y65255D01*
X111045Y66963D02*
X111045Y61455D01*
X109537Y61455D01*
X109537Y66963D01*
X111045Y66963D01*
X111045Y63355D02*
X109537Y63355D01*
X109537Y65255D02*
X111045Y65255D01*
X116045Y66963D02*
X116045Y61455D01*
X114537Y61455D01*
X114537Y66963D01*
X116045Y66963D01*
X116045Y63355D02*
X114537Y63355D01*
X114537Y65255D02*
X116045Y65255D01*
X121045Y66963D02*
X121045Y61455D01*
X119537Y61455D01*
X119537Y66963D01*
X121045Y66963D01*
X121045Y63355D02*
X119537Y63355D01*
X119537Y65255D02*
X121045Y65255D01*
X129045Y69455D02*
X129045Y70963D01*
X129045Y69455D02*
X123537Y69455D01*
X123537Y70963D01*
X129045Y70963D01*
X129045Y74455D02*
X129045Y75963D01*
X129045Y74455D02*
X123537Y74455D01*
X123537Y75963D01*
X129045Y75963D01*
X129045Y79455D02*
X129045Y80963D01*
X129045Y79455D02*
X123537Y79455D01*
X123537Y80963D01*
X129045Y80963D01*
X129045Y84455D02*
X129045Y85963D01*
X129045Y84455D02*
X123537Y84455D01*
X123537Y85963D01*
X129045Y85963D01*
X129045Y89455D02*
X129045Y90963D01*
X129045Y89455D02*
X123537Y89455D01*
X123537Y90963D01*
X129045Y90963D01*
X129045Y94455D02*
X129045Y95963D01*
X129045Y94455D02*
X123537Y94455D01*
X123537Y95963D01*
X129045Y95963D01*
X129045Y99455D02*
X129045Y100963D01*
X129045Y99455D02*
X123537Y99455D01*
X123537Y100963D01*
X129045Y100963D01*
X129045Y104455D02*
X129045Y105963D01*
X129045Y104455D02*
X123537Y104455D01*
X123537Y105963D01*
X129045Y105963D01*
X121045Y108455D02*
X121045Y113963D01*
X121045Y108455D02*
X119537Y108455D01*
X119537Y113963D01*
X121045Y113963D01*
X121045Y110355D02*
X119537Y110355D01*
X119537Y112255D02*
X121045Y112255D01*
X116045Y113963D02*
X116045Y108455D01*
X114537Y108455D01*
X114537Y113963D01*
X116045Y113963D01*
X116045Y110355D02*
X114537Y110355D01*
X114537Y112255D02*
X116045Y112255D01*
X111045Y113963D02*
X111045Y108455D01*
X109537Y108455D01*
X109537Y113963D01*
X111045Y113963D01*
X111045Y110355D02*
X109537Y110355D01*
X109537Y112255D02*
X111045Y112255D01*
X106045Y113963D02*
X106045Y108455D01*
X104537Y108455D01*
X104537Y113963D01*
X106045Y113963D01*
X106045Y110355D02*
X104537Y110355D01*
X104537Y112255D02*
X106045Y112255D01*
X101045Y113963D02*
X101045Y108455D01*
X99537Y108455D01*
X99537Y113963D01*
X101045Y113963D01*
X101045Y110355D02*
X99537Y110355D01*
X99537Y112255D02*
X101045Y112255D01*
X96045Y113963D02*
X96045Y108455D01*
X94537Y108455D01*
X94537Y113963D01*
X96045Y113963D01*
X96045Y110355D02*
X94537Y110355D01*
X94537Y112255D02*
X96045Y112255D01*
X91045Y113963D02*
X91045Y108455D01*
X89537Y108455D01*
X89537Y113963D01*
X91045Y113963D01*
X91045Y110355D02*
X89537Y110355D01*
X89537Y112255D02*
X91045Y112255D01*
X86045Y113963D02*
X86045Y108455D01*
X84537Y108455D01*
X84537Y113963D01*
X86045Y113963D01*
X86045Y110355D02*
X84537Y110355D01*
X84537Y112255D02*
X86045Y112255D01*
X82045Y105963D02*
X82045Y104455D01*
X76537Y104455D01*
X76537Y105963D01*
X82045Y105963D01*
X82045Y100963D02*
X82045Y99455D01*
X76537Y99455D01*
X76537Y100963D01*
X82045Y100963D01*
X82045Y95963D02*
X82045Y94455D01*
X76537Y94455D01*
X76537Y95963D01*
X82045Y95963D01*
X82045Y90963D02*
X82045Y89455D01*
X76537Y89455D01*
X76537Y90963D01*
X82045Y90963D01*
X82045Y85963D02*
X82045Y84455D01*
X76537Y84455D01*
X76537Y85963D01*
X82045Y85963D01*
X82045Y80963D02*
X82045Y79455D01*
X76537Y79455D01*
X76537Y80963D01*
X82045Y80963D01*
X82045Y75963D02*
X82045Y74455D01*
X76537Y74455D01*
X76537Y75963D01*
X82045Y75963D01*
X82045Y70963D02*
X82045Y69455D01*
X76537Y69455D01*
X76537Y70963D01*
X82045Y70963D01*
D18*
X102791Y87709D03*
D19*
X31263Y37317D02*
X4297Y37317D01*
X4297Y51583D01*
X31263Y51583D01*
X31263Y37317D01*
X31263Y41139D02*
X4297Y41139D01*
X4297Y44961D02*
X31263Y44961D01*
X31263Y48783D02*
X4297Y48783D01*
X4297Y62717D02*
X31263Y62717D01*
X4297Y62717D02*
X4297Y76983D01*
X31263Y76983D01*
X31263Y62717D01*
X31263Y66539D02*
X4297Y66539D01*
X4297Y70361D02*
X31263Y70361D01*
X31263Y74183D02*
X4297Y74183D01*
X4297Y88117D02*
X31263Y88117D01*
X4297Y88117D02*
X4297Y102383D01*
X31263Y102383D01*
X31263Y88117D01*
X31263Y91939D02*
X4297Y91939D01*
X4297Y95761D02*
X31263Y95761D01*
X31263Y99583D02*
X4297Y99583D01*
D20*
X44450Y131763D03*
X57150Y131763D03*
X69850Y131763D03*
X120650Y131763D03*
X107950Y131763D03*
X95250Y131763D03*
X82550Y131763D03*
X127000Y7938D03*
X139700Y7938D03*
X152400Y7938D03*
X165100Y7938D03*
X177800Y7938D03*
X190500Y7938D03*
X107950Y7938D03*
X95250Y7938D03*
X82550Y7938D03*
X190500Y131763D03*
X177800Y131763D03*
X165100Y131763D03*
X152400Y131763D03*
X139700Y131763D03*
D21*
X161131Y102394D03*
X78581Y38100D03*
X124243Y40857D03*
X161925Y111919D03*
X143814Y110867D03*
X60325Y114300D03*
X127397Y113109D03*
X148034Y86261D03*
X190782Y43081D03*
X141939Y93917D03*
X162624Y80455D03*
X162365Y71478D03*
X153325Y23019D03*
X137319Y26194D03*
X67113Y85777D03*
X51070Y114427D03*
X161925Y23019D03*
X137319Y86519D03*
X61913Y72231D03*
X67469Y65088D03*
X78581Y59531D03*
M02*
