G04 EAGLE Gerber RS-274X export*
G75*
%MOMM*%
%FSLAX34Y34*%
%LPD*%
%INSoldermask Bottom*%
%IPPOS*%
%AMOC8*
5,1,8,0,0,1.08239X$1,22.5*%
G01*
%ADD10C,1.104800*%
%ADD11C,1.016000*%
%ADD12R,1.066800X1.066800*%
%ADD13C,0.756400*%


D10*
X66244Y17506D03*
D11*
X172498Y100806D02*
X182150Y100806D01*
X182150Y88106D02*
X172498Y88106D01*
X172498Y113506D02*
X182150Y113506D01*
X182150Y75406D02*
X172498Y75406D01*
X172498Y62706D02*
X182150Y62706D01*
X182150Y50006D02*
X172498Y50006D01*
X172498Y37306D02*
X182150Y37306D01*
X182150Y24606D02*
X172498Y24606D01*
D12*
X44450Y131763D03*
X57150Y131763D03*
X69850Y131763D03*
X120650Y131763D03*
X107950Y131763D03*
X95250Y131763D03*
X82550Y131763D03*
X127000Y7938D03*
X139700Y7938D03*
X152400Y7938D03*
X165100Y7938D03*
X177800Y7938D03*
X190500Y7938D03*
X107950Y7938D03*
X95250Y7938D03*
X82550Y7938D03*
X190500Y131763D03*
X177800Y131763D03*
X165100Y131763D03*
X152400Y131763D03*
X139700Y131763D03*
D13*
X161131Y102394D03*
X78581Y38100D03*
X124243Y40857D03*
X161925Y111919D03*
X143814Y110867D03*
X60325Y114300D03*
X127397Y113109D03*
X148034Y86261D03*
X190782Y43081D03*
X141939Y93917D03*
X162624Y80455D03*
X162365Y71478D03*
X153325Y23019D03*
X137319Y26194D03*
X67113Y85777D03*
X51070Y114427D03*
X161925Y23019D03*
X137319Y86519D03*
X61913Y72231D03*
X67469Y65088D03*
X78581Y59531D03*
M02*
